<svg width="560" height="733" viewBox="0 0 560 733" fill="none" xmlns="http://www.w3.org/2000/svg">
<path d="M24.1591 160.518L244.621 160.518V147.94L24.1591 147.94V160.518Z" fill="#EBEBEB"/>
<path d="M232.25 160.535H222.578V202.121H232.25V160.535Z" fill="#EBEBEB"/>
<path d="M232.25 160.535H222.578V173.387H232.25V160.535Z" fill="#DBDBDB"/>
<path d="M46.1744 160.535H36.5028V202.121H46.1744V160.535Z" fill="#EBEBEB"/>
<path d="M46.1744 160.535H36.5028V173.387H46.1744V160.535Z" fill="#DBDBDB"/>
<path d="M203.461 147.958V67.8311H187.942V147.958H203.461Z" fill="#C7C7C7"/>
<path d="M203.461 72.3557V63.5464H187.942V72.3557H203.461Z" fill="#DBDBDB"/>
<path d="M203.461 86.8951V83.626H187.942V86.8951H203.461Z" fill="#DBDBDB"/>
<path d="M203.461 137.445V128.635H186.01V137.445H203.461Z" fill="#DBDBDB"/>
<path d="M187.941 147.957V54.4785H177.092V147.957H187.941Z" fill="#DBDBDB"/>
<path d="M185.824 99.2126V63.27H179.315V99.2126H185.824Z" fill="#EBEBEB"/>
<path d="M107.584 147.987L158.704 82.27L151.077 72.2364L99.957 137.954L107.584 147.987Z" fill="#C7C7C7"/>
<path d="M118.023 130.53L137.678 105.261L133.102 99.2411L113.446 124.51L118.023 130.53Z" fill="#DBDBDB"/>
<path d="M177.105 147.957V76.9663H158.688V147.957H177.105Z" fill="#A6A6A6"/>
<path d="M177.105 140.454V133.83H158.688V140.454H177.105Z" fill="#C7C7C7"/>
<path d="M177.105 129.477V126.914H158.688V129.477H177.105Z" fill="#C7C7C7"/>
<path d="M216.188 147.973V81.25H203.473V147.973H216.188Z" fill="#A6A6A6"/>
<path d="M216.188 140.884V134.673H203.473V140.884H216.188Z" fill="#C7C7C7"/>
<path d="M216.188 101.209V94.998H203.473V101.209H216.188Z" fill="#C7C7C7"/>
<path d="M216.175 107.885V105.477H203.461V107.885H216.175Z" fill="#C7C7C7"/>
<path d="M68.7322 62.479C79.5813 76.2435 81.4071 97.6817 79.1182 116.401C79.1182 116.814 78.5493 116.711 78.5493 116.298C78.5493 112.048 78.6552 107.816 78.6419 103.618C78.6419 103.411 78.5361 103.239 78.4699 103.05C75.5464 100.545 73.1279 97.164 71.418 93.191C69.6054 88.5627 68.8909 83.3322 67.515 78.4802C67.3827 78.0157 67.7663 78.1533 68.0045 78.3942C74.6198 84.7259 76.7102 91.5393 78.589 100.641C78.5457 95.879 78.1603 91.1325 77.4379 86.4636C76.1779 77.6633 73.0632 69.4909 68.4411 62.8575C68.4163 62.8048 68.4058 62.7427 68.4114 62.6814C68.417 62.62 68.4383 62.5628 68.472 62.5191C68.5056 62.4754 68.5495 62.4477 68.5967 62.4404C68.6439 62.4331 68.6916 62.4467 68.7322 62.479Z" fill="#A6A6A6"/>
<path d="M66.6955 64.0963C64.8167 64.0963 63.6524 68.0536 62.1971 69.258C62.0439 69.4197 61.8663 69.5376 61.6757 69.6039C61.4851 69.6702 61.2859 69.6835 61.0911 69.6429C60.8964 69.6023 60.7103 69.5088 60.5453 69.3683C60.3802 69.2278 60.2397 69.0437 60.1331 68.8278C58.691 66.2126 60.6755 62.9951 62.5278 61.1885C61.3011 62.0827 60.0064 62.8092 58.6645 63.3564C58.4812 63.4403 58.286 63.4706 58.0927 63.4452C57.8994 63.4199 57.7127 63.3395 57.546 63.2097C57.3793 63.08 57.2366 62.9041 57.1281 62.6945C57.0196 62.4849 56.9478 62.2469 56.9181 61.9972C56.283 58.4356 59.7229 56.8355 62.0912 56.8355C60.9402 55.8032 57.659 52.9986 59.4451 51.6738C61.2312 50.349 65.0681 54.3063 66.3118 55.6311C68.1641 57.5753 70.3604 60.5003 70.453 63.5457C70.5191 67.0212 68.1244 64.8361 66.6955 64.0963Z" fill="#DBDBDB"/>
<path d="M67.2248 64.6985C64.8433 63.2704 60.2523 65.3179 59.8686 64.1307C59.0747 61.7391 62.7396 60.1046 64.7242 59.7777C62.8984 59.1411 59.432 58.0571 59.5114 55.8376C59.6437 53.0503 64.8698 55.4419 67.5159 58.0743C70.8368 61.395 70.8236 64.6125 70.2679 65.2491C69.5137 66.1266 67.6217 64.9222 67.2248 64.6985Z" fill="#EBEBEB"/>
<path d="M93.4475 61.1198C82.2014 74.3854 79.7538 95.6516 81.5399 114.457C81.5399 114.887 82.0956 114.801 82.1088 114.457C82.2279 110.208 82.2543 105.975 82.3866 101.777L82.5719 101.209C85.5668 98.863 88.0814 95.6106 89.9017 91.7287C91.8598 87.1864 92.7198 81.9903 94.2413 77.2243C94.3868 76.7598 94.0032 76.8802 93.7518 77.1039C86.9645 83.1086 84.6623 89.8188 82.5057 98.8174C82.6861 94.0614 83.2088 89.3379 84.0669 84.7088C85.5901 75.9675 88.9525 67.9492 93.7782 61.55C93.8221 61.4929 93.8467 61.4156 93.8467 61.3349C93.8467 61.2542 93.8221 61.1769 93.7782 61.1198C93.7344 61.0628 93.6749 61.0308 93.6128 61.0308C93.5508 61.0308 93.4913 61.0628 93.4475 61.1198Z" fill="#A6A6A6"/>
<path d="M95.4325 62.8233C97.298 62.9954 98.3565 66.9355 99.7721 68.1399C99.9205 68.3096 100.095 68.4366 100.283 68.5127C100.472 68.5887 100.671 68.6121 100.867 68.5812C101.063 68.5503 101.252 68.4659 101.421 68.3336C101.591 68.2012 101.736 68.0238 101.849 67.813C103.371 65.2665 101.479 61.9459 99.6795 60.0532C100.876 61.0564 102.149 61.898 103.477 62.5653C103.658 62.6584 103.852 62.6985 104.046 62.6828C104.24 62.6671 104.429 62.5959 104.6 62.4743C104.77 62.3527 104.918 62.1838 105.033 61.9794C105.147 61.7751 105.226 61.5404 105.263 61.292C105.991 57.7477 102.617 55.9927 100.248 55.8034C101.413 54.8227 104.773 52.1731 103.08 50.6418C101.386 49.1105 97.4171 53.0333 96.094 54.3238C94.1888 56.182 91.9131 58.9865 91.7411 62.0147C91.5295 65.559 93.9771 63.4944 95.4325 62.8233Z" fill="#DBDBDB"/>
<path d="M94.8771 63.3571C97.3115 62.0667 101.823 64.3206 102.247 63.1679C103.107 60.8279 99.4946 59.0041 97.5365 58.5912C99.3755 58.0406 102.829 57.1803 102.829 54.892C102.829 52.1047 97.5365 54.2382 94.7713 56.7502C91.3578 59.8988 91.2784 63.099 91.8076 63.7701C92.5485 64.7164 94.4802 63.6152 94.8771 63.3571Z" fill="#EBEBEB"/>
<path d="M81.937 96.1687C81.1839 103.265 80.0162 110.277 78.4441 117.142C78.4231 117.277 78.3618 117.395 78.2737 117.471C78.1856 117.547 78.078 117.574 77.9745 117.547C77.8709 117.519 77.78 117.44 77.7217 117.325C77.6634 117.21 77.6425 117.071 77.6635 116.936C78.4044 110.467 79.754 104.118 80.4817 97.6656C81.2944 91.1208 81.587 84.4846 81.3549 77.8619C80.8786 66.9707 78.6029 55.3741 73.1387 46.8918C73.0196 46.6853 73.271 46.3928 73.39 46.5821C84.345 63.1855 82.6515 83.5398 82.6515 85.3636C84.1995 78.4813 85.8004 70.6183 91.6616 63.6156C91.9129 63.3059 92.1114 63.4608 92.0717 63.977C91.0265 76.7091 88.301 83.3677 82.6118 90.1811C82.3869 92.1598 82.1884 94.1728 81.937 96.1687Z" fill="#A6A6A6"/>
<path d="M73.0331 48.7658C71.0617 47.6302 68.3494 50.8821 66.4178 51.1058C66.2008 51.1734 65.9755 51.1818 65.7559 51.1304C65.5363 51.0791 65.3273 50.9691 65.1421 50.8074C64.9568 50.6457 64.7994 50.4359 64.6796 50.1911C64.5599 49.9463 64.4805 49.6719 64.4464 49.3852C63.9569 45.7376 67.2645 43.6729 69.8842 43.0191C68.2304 42.8815 66.603 43.4665 64.9756 42.8987C64.7515 42.8648 64.5357 42.7681 64.343 42.6152C64.1504 42.4624 63.9855 42.2571 63.8597 42.0134C63.734 41.7697 63.6503 41.4935 63.6146 41.2038C63.5788 40.914 63.5918 40.6176 63.6526 40.335C64.3803 36.2229 68.5611 36.8939 71.0485 38.2876C70.2547 36.567 67.9393 31.4053 70.2811 31.1128C72.6229 30.8203 75.0971 37.5133 75.8777 39.7156C77.042 42.9503 78.2063 47.4065 77.1081 50.624C75.8777 54.306 74.2371 50.4692 73.0331 48.7658Z" fill="#DBDBDB"/>
<path d="M73.3634 49.7293C71.4318 46.7183 65.8881 45.8236 65.9411 44.344C66.0469 41.3502 70.4792 42.0384 72.6622 43.0019C71.0216 41.1437 67.7933 37.8402 68.7856 35.5003C70.0029 32.6957 74.488 38.5973 76.2213 43.0707C78.3911 48.697 77.1209 52.0005 76.3006 52.3102C75.176 52.7231 73.681 50.2455 73.3634 49.7293Z" fill="#EBEBEB"/>
<path d="M89.1481 99.9881L93.9773 147.957H64.592C65.2007 143.708 70.6649 99.9365 70.6649 99.9365L89.1481 99.9881Z" fill="#DBDBDB"/>
<path d="M439.574 112.271C440.375 107.858 441.831 103.691 443.861 100.004C445.793 96.5626 448.906 94.0621 453.202 92.5021C454.525 91.9859 456.073 91.4353 457.939 90.7815C459.858 90.1749 461.735 89.3576 463.548 88.3383C465.394 87.314 467.097 85.9015 468.589 84.1573C470.102 82.3818 471.159 80.0458 471.619 77.4644C472.014 75.6079 472.064 73.6558 471.765 71.7693C471.486 70.0743 470.946 68.4704 470.177 67.055C469.381 65.6273 468.374 64.422 467.213 63.5106C466.026 62.5548 464.732 61.8465 463.376 61.4115C461.821 60.8916 460.2 60.7921 458.613 61.119C457.171 61.3978 455.764 61.9303 454.432 62.7019C453.134 63.4588 451.908 64.4117 450.781 65.5408C449.741 66.5674 448.747 67.6704 447.804 68.8443L439.733 56.8004C441.236 54.1607 443.07 51.869 445.158 50.0214C447.191 48.2253 449.421 46.839 451.773 45.9092C454.17 44.9772 456.655 44.485 459.156 44.4467C461.738 44.3987 464.315 44.7979 466.816 45.6339C469.667 46.5697 472.398 48.0358 474.927 49.987C477.453 51.9243 479.658 54.4981 481.41 57.5574C483.216 60.7524 484.462 64.4228 485.061 68.311C485.734 72.8824 485.58 77.5948 484.611 82.0755C484.109 84.8787 483.288 87.5692 482.177 90.0589C481.19 92.203 479.949 94.1308 478.499 95.7711C477.063 97.3745 475.476 98.7332 473.776 99.8145C471.931 100.97 470.025 101.954 468.073 102.757C466.34 103.445 464.633 104.064 462.926 104.649C461.281 105.202 459.677 105.951 458.137 106.886C456.664 107.755 455.32 108.955 454.168 110.43C452.984 112.053 452.161 114.063 451.786 116.246L439.574 112.271ZM433.21 146.39L437.114 126.225L449.59 130.303L445.687 150.468L433.21 146.39Z" fill="#EBEBEB"/>
<path d="M45.923 486.237C46.4908 489.496 46.5627 492.869 46.1347 496.164C45.5031 499.67 43.9956 502.804 41.8479 505.077C41.107 505.954 40.1941 506.987 39.1092 508.157C37.986 509.362 36.9456 510.691 36 512.131C35.0251 513.582 34.2426 515.233 33.6846 517.018C33.1247 518.832 33.0047 520.825 33.3406 522.73C33.5466 524.13 33.9995 525.45 34.6637 526.584C35.2711 527.589 36.0268 528.425 36.8864 529.044C37.7703 529.646 38.7371 530.015 39.731 530.128C40.7562 530.267 41.7918 530.198 42.8005 529.922C43.9497 529.633 45.0427 529.048 46.0156 528.201C46.9054 527.414 47.7069 526.47 48.3971 525.397C49.0693 524.339 49.6463 523.184 50.1171 521.956C50.5566 520.842 50.9411 519.692 51.2682 518.514L59.6035 523.057C59.2559 525.441 58.6029 527.733 57.6718 529.836C56.7668 531.891 55.6245 533.754 54.2847 535.359C52.9304 536.994 51.402 538.368 49.7466 539.437C48.0457 540.548 46.2396 541.364 44.375 541.862C42.2538 542.444 40.0791 542.624 37.9184 542.396C35.7625 542.174 33.6622 541.396 31.7397 540.108C29.7452 538.741 28.0028 536.827 26.6327 534.498C25.0578 531.749 23.9937 528.563 23.5235 525.19C23.156 523.122 23.0311 520.993 23.153 518.876C23.2707 517.038 23.6147 515.237 24.1718 513.542C24.7187 511.871 25.4351 510.303 26.3019 508.879C27.2313 507.326 28.2485 505.865 29.345 504.509C30.3241 503.339 31.3031 502.204 32.2954 501.068C33.2546 500.026 34.1402 498.874 34.9415 497.627C35.656 496.424 36.2024 495.067 36.5557 493.618C36.9419 492.041 36.9877 490.357 36.688 488.749L45.923 486.237ZM41.6627 460.927L44.0839 475.948L34.8225 478.477L32.4013 463.474L41.6627 460.927Z" fill="#EBEBEB"/>
<path d="M462.583 332.711C464.141 335.369 465.287 338.396 465.957 341.623C466.49 345.167 466.104 348.84 464.859 352.067C464.475 353.271 463.972 354.7 463.364 356.351C462.721 358.053 462.199 359.826 461.803 361.651C461.38 363.497 461.196 365.421 461.26 367.346C461.336 369.297 461.862 371.173 462.769 372.731C463.401 373.891 464.235 374.84 465.203 375.501C466.079 376.09 467.038 376.441 468.021 376.533C469.018 376.617 470.017 376.435 470.958 376C471.929 375.561 472.843 374.935 473.671 374.142C474.625 373.262 475.431 372.138 476.039 370.838C476.619 369.642 477.064 368.344 477.362 366.984C477.629 365.662 477.784 364.307 477.825 362.941C477.88 361.697 477.88 360.451 477.825 359.207L486.848 358.829C487.303 361.177 487.446 363.61 487.272 366.021C487.099 368.388 486.653 370.709 485.949 372.903C485.232 375.119 484.278 377.192 483.117 379.063C481.93 381.009 480.551 382.745 479.016 384.224C477.269 385.902 475.343 387.241 473.3 388.199C471.268 389.159 469.109 389.586 466.949 389.455C464.703 389.29 462.51 388.497 460.519 387.132C458.208 385.476 456.221 383.151 454.711 380.336C453.716 378.654 452.922 376.786 452.356 374.796C451.873 373.062 451.609 371.237 451.575 369.393C451.536 367.575 451.683 365.758 452.012 363.991C452.372 362.08 452.836 360.206 453.401 358.382C453.917 356.781 454.433 355.216 454.989 353.684C455.541 352.211 455.984 350.673 456.312 349.09C456.611 347.604 456.709 346.061 456.603 344.531C456.447 342.891 455.948 341.338 455.161 340.04L462.583 332.711ZM450.676 312.064L457.675 324.4L450.041 331.73L443.042 319.394L450.676 312.064Z" fill="#EBEBEB"/>
<path d="M506.032 301.674C505.987 297.995 506.499 294.341 507.541 290.92C508.833 287.329 511.013 284.403 513.732 282.61C514.672 281.87 515.836 281.044 517.212 280.098C518.607 279.131 519.936 278.009 521.181 276.743C522.485 275.476 523.613 273.928 524.515 272.166C525.421 270.37 525.883 268.257 525.838 266.11C525.861 264.626 525.628 263.154 525.157 261.802C524.685 260.45 523.987 259.253 523.113 258.298C522.275 257.382 521.303 256.697 520.255 256.285C519.177 255.842 518.052 255.616 516.921 255.614C515.635 255.595 514.358 255.904 513.164 256.526C512.07 257.122 511.043 257.903 510.107 258.849C509.198 259.781 508.377 260.85 507.66 262.032C507 263.101 506.39 264.222 505.834 265.387L497.657 258.057C498.442 255.596 499.538 253.322 500.899 251.33C502.236 249.396 503.788 247.731 505.503 246.392C507.25 245.038 509.134 244.007 511.1 243.329C513.12 242.637 515.202 242.29 517.291 242.297C519.68 242.298 522.055 242.75 524.343 243.639C526.624 244.511 528.747 245.968 530.588 247.923C532.489 249.974 534.028 252.532 535.1 255.425C536.351 258.846 536.981 262.596 536.939 266.385C536.964 268.711 536.727 271.03 536.238 273.267C535.782 275.204 535.1 277.038 534.213 278.704C533.335 280.338 532.294 281.813 531.117 283.092C529.84 284.478 528.487 285.743 527.069 286.877C525.825 287.858 524.568 288.804 523.311 289.699C522.102 290.56 520.955 291.562 519.885 292.692C518.877 293.75 518.022 295.032 517.358 296.478C516.669 298.047 516.326 299.833 516.365 301.639L506.032 301.674ZM506.217 330.132V313.27H516.643V330.132H506.217Z" fill="#EBEBEB"/>
<path d="M179.87 399.418C179.241 395.831 179.16 392.119 179.632 388.492C180.325 384.632 181.993 381.185 184.368 378.702C185.175 377.721 186.168 376.603 187.372 375.261C188.597 373.924 189.738 372.463 190.785 370.891C191.847 369.286 192.7 367.467 193.312 365.505C193.927 363.511 194.057 361.319 193.683 359.225C193.457 357.686 192.959 356.237 192.227 354.993C191.548 353.926 190.711 353.049 189.766 352.412C188.799 351.739 187.737 351.33 186.644 351.207C185.521 351.071 184.388 351.153 183.283 351.448C182.021 351.779 180.821 352.428 179.751 353.358C178.766 354.232 177.876 355.273 177.105 356.455C176.371 357.615 175.741 358.879 175.226 360.223C174.725 361.448 174.283 362.712 173.903 364.008L164.893 358.984C165.27 356.366 165.981 353.848 166.996 351.534C167.989 349.274 169.243 347.226 170.714 345.461C172.199 343.658 173.874 342.14 175.689 340.953C177.561 339.737 179.544 338.836 181.59 338.269C183.925 337.635 186.317 337.438 188.695 337.684C191.062 337.924 193.369 338.772 195.482 340.179C197.675 341.668 199.59 343.765 201.092 346.321C203.847 351.318 205.21 357.387 204.955 363.527C204.822 365.54 204.447 367.514 203.844 369.377C203.245 371.222 202.462 372.958 201.515 374.538C200.484 376.235 199.366 377.839 198.168 379.339C197.096 380.629 196.025 381.885 194.94 383.089C193.892 384.26 192.927 385.55 192.055 386.943C191.243 388.258 190.608 389.741 190.177 391.331C189.764 393.067 189.718 394.915 190.044 396.682L179.87 399.418ZM184.593 427.205L181.947 410.722L192.148 407.9L194.794 424.4L184.593 427.205Z" fill="#EBEBEB"/>
<path d="M498.028 532.881L515.704 532.399L524.41 532.21C527.307 532.124 530.178 532.21 533.062 532.107L532.48 532.881L532.401 513.628L533.062 514.488L515.505 514.385C509.671 514.385 503.836 514.178 497.988 514.092L498.358 513.628C498.358 516.776 498.239 519.942 498.173 523.16L498.028 532.881ZM498.028 532.881L497.842 523.349C497.842 520.149 497.697 516.897 497.67 513.628V513.163H498.028C503.876 513.077 509.71 512.888 515.545 512.871L533.062 512.768H533.724V513.628V532.881V533.655H533.129C530.178 533.655 527.214 533.655 524.277 533.552L515.466 533.363L498.028 532.881Z" fill="#EBEBEB"/>
<path d="M517.569 557.158L535.245 556.677L543.951 556.487C546.848 556.401 549.719 556.487 552.604 556.384L552.021 557.158L551.955 537.905L552.604 538.765L535.086 538.662C529.251 538.662 523.417 538.456 517.569 538.37L517.939 537.905C517.939 541.054 517.82 544.22 517.767 547.437L517.569 557.158ZM517.569 557.158L517.384 547.626C517.384 544.426 517.238 541.174 517.212 537.905V537.441H517.569C523.417 537.355 529.251 537.165 535.086 537.148L552.604 537.045H553.278V537.905L553.199 557.158V557.933H552.551C549.6 557.933 546.65 557.933 543.699 557.829L534.888 557.64L517.569 557.158Z" fill="#EBEBEB"/>
<path d="M478.459 557.158L496.135 556.677L504.841 556.487C507.726 556.401 510.61 556.487 513.494 556.384L512.912 557.158L512.859 537.905L513.521 538.765L496.003 538.662C490.169 538.662 484.321 538.456 478.486 538.37L478.843 537.905C478.843 541.054 478.737 544.22 478.671 547.437L478.459 557.158ZM478.459 557.158L478.274 547.626C478.208 544.426 478.129 541.174 478.102 537.905V537.441H478.459C484.294 537.355 490.142 537.165 495.977 537.148L513.494 537.045H514.156V537.905L514.182 557.158V557.933H513.6C510.65 557.933 507.686 557.933 504.749 557.829L495.937 557.64L478.459 557.158Z" fill="#EBEBEB"/>
<path d="M26.9367 557.158L44.5996 556.677L53.3054 556.487C56.2029 556.401 59.0872 556.487 61.9715 556.384L61.3761 557.158L61.3099 537.905L61.9715 538.765L44.4938 538.662C38.6459 538.662 32.8111 538.456 26.9764 538.37L27.3337 537.905C27.3337 541.054 27.2146 544.22 27.1617 547.437L26.9367 557.158ZM26.9367 557.158L26.7383 547.626C26.7383 544.426 26.5927 541.174 26.5663 537.905V537.441H26.9367C32.7715 537.355 38.6062 537.165 44.4541 537.148L61.9715 537.045H62.633V537.905L62.5536 557.158V557.933H61.9715C59.021 557.933 56.0574 557.933 53.1069 557.829L44.2953 557.64L26.9367 557.158Z" fill="#EBEBEB"/>
<path d="M26.9367 21.6675L44.5996 21.1857L53.3054 20.9792C56.2029 20.9792 59.0872 20.9792 61.9715 20.9792L61.3761 21.7535L61.3099 2.50039L61.9715 3.34347L44.4938 3.137C38.6459 3.137 32.8111 2.94774 26.9764 2.86171L27.3337 2.39716C27.3337 5.54579 27.2146 8.71162 27.1617 11.9119L26.9367 21.6675ZM26.9367 21.6675L26.7383 12.1355C26.7383 8.91809 26.5927 5.66623 26.5663 2.41437V1.94982H26.9367C32.7715 1.94982 38.6062 1.67453 44.4541 1.67453L61.9715 1.57129H62.633V2.44877L62.5536 21.7019V22.4589H61.9715C59.021 22.4589 56.0574 22.4589 53.1069 22.3729L44.2953 22.0632L26.9367 21.6675Z" fill="#EBEBEB"/>
<path d="M7.44858 45.9443L25.1115 45.4626L33.8172 45.2561C36.7148 45.2561 39.5858 45.2561 42.4833 45.2561L41.8879 46.0304V26.7773L42.5495 27.6203L24.913 27.4311C19.0651 27.4311 13.2304 27.2246 7.44858 27.2246L7.80581 26.76C7.80581 29.9087 7.68673 33.0745 7.63381 36.2748L7.44858 45.9443ZM7.44858 45.9443L7.25012 36.4124C7.25012 33.1949 7.10459 29.9431 7.07812 26.6912V26.2267H7.44858C13.2833 26.2267 19.118 25.9514 24.966 25.9514L42.4833 25.8481H43.1449V26.7256L43.0655 45.9787V46.7358H42.4833C39.5197 46.7358 36.5692 46.7358 33.6188 46.7358L24.8072 46.5293L7.44858 45.9443Z" fill="#EBEBEB"/>
<path d="M517.569 21.6847L535.245 21.2029L543.951 21.0137C546.848 21.0137 549.719 21.0137 552.604 20.9104L552.021 21.6847L551.955 2.43157L552.604 3.29185L535.086 3.137C529.251 3.137 523.417 2.94774 517.569 2.86171L517.939 2.39716C517.939 5.54579 517.82 8.71162 517.767 11.9119L517.569 21.6847ZM517.569 21.6847L517.384 12.1528C517.384 8.9353 517.238 5.70064 517.212 2.43157V1.96702H517.569C523.417 1.88099 529.251 1.70893 535.086 1.69173L552.551 1.57129H553.225V2.43157L553.159 21.6847V22.4589H552.551C549.6 22.4589 546.65 22.4589 543.699 22.4589L534.888 22.2697L517.569 21.6847Z" fill="#EBEBEB"/>
<path d="M327.907 271.251L310.245 271.733L301.539 271.922C298.641 272.008 295.757 271.922 292.873 272.025L293.468 271.251L293.534 290.504L292.873 289.644L310.39 289.764C316.238 289.764 322.073 289.954 327.907 290.04L327.55 290.504C327.55 287.356 327.669 284.19 327.722 280.989L327.907 271.251ZM327.907 271.251L328.106 280.783C328.106 284 328.251 287.235 328.278 290.504V290.969H327.907C322.073 290.969 316.238 291.227 310.39 291.244L292.873 291.347H292.211V290.47L292.291 271.217V270.442H292.873C295.823 270.442 298.787 270.442 301.737 270.528L310.549 270.718L327.907 271.251Z" fill="#EBEBEB"/>
<path d="M308.366 246.975L290.703 247.457L281.997 247.646C279.1 247.646 276.215 247.646 273.331 247.749L273.926 246.975L273.993 266.228L273.331 265.368L290.848 265.488C296.683 265.488 302.531 265.678 308.366 265.764L308.009 266.228C308.009 263.08 308.114 259.914 308.18 256.713L308.366 246.975ZM308.366 246.975L308.551 256.507C308.617 259.724 308.71 262.959 308.723 266.228V266.693H308.353C302.518 266.779 296.67 266.951 290.835 266.968L273.318 267.071H272.656V266.211L272.736 246.958V246.184H273.384C276.334 246.184 279.298 246.184 282.248 246.27L291.06 246.459L308.366 246.975Z" fill="#EBEBEB"/>
<path d="M0 644.08L70.0033 643.667L140.007 643.512L280 643.22L419.993 643.512L489.997 643.667L560 644.08L489.997 644.51L419.993 644.665L280 644.94L140.007 644.665L70.0033 644.51L0 644.08Z" fill="#263238"/>
<path d="M280 733C411.812 733 518.667 719.473 518.667 702.787C518.667 686.101 411.812 672.574 280 672.574C148.187 672.574 41.3323 686.101 41.3323 702.787C41.3323 719.473 148.187 733 280 733Z" fill="#EBEBEB"/>
<path d="M514.181 454.769C509.154 448.368 502.657 440.626 494.97 443.396C487.747 445.994 484.981 456.249 483.685 464.8C482.018 475.829 480.721 486.943 479.372 498.041C478.022 509.139 476.725 520.408 475.495 531.678C474.789 538.01 474.101 544.347 473.431 550.69C473.087 553.856 472.747 557.022 472.412 560.188C472.081 563.302 471.685 566.416 471.552 569.548C471.552 570.546 472.717 570.683 472.875 569.737C473.815 564.455 474.198 558.949 474.794 553.598C475.389 548.247 475.998 542.793 476.593 537.408C477.797 526.688 479.054 515.987 480.284 505.267C481.515 494.548 482.812 483.864 484.135 473.162C485.246 464.077 485.775 452.807 491.954 446.82C493.633 445.328 495.577 444.416 497.602 444.169C499.627 443.922 501.667 444.349 503.531 445.409C507.593 447.439 510.847 451.225 514.036 454.975C514.181 455.096 514.314 454.907 514.181 454.769Z" fill="#263238"/>
<path d="M507.342 448.23C507.342 448.23 497.061 443.429 491.994 453.168C486.927 462.906 492.986 487.717 539.757 501.705C538.388 482.694 534.587 464.115 528.511 446.733C518.482 418.292 500.607 429.063 507.342 448.23Z" fill="url(#paint0_linear_96_145)"/>
<path d="M537.07 497.645C536.364 495.943 535.578 494.299 534.715 492.724C533.935 491.158 533.141 489.592 532.347 488.044C531.752 486.874 531.13 485.704 530.521 484.603C530.521 484.327 530.521 484.035 530.601 483.743L530.759 482.16C530.878 481.024 531.011 479.871 531.13 478.718C531.249 477.566 531.408 476.465 531.58 475.277C531.687 474.06 531.891 472.861 532.188 471.699C532.188 471.509 532.003 471.423 531.99 471.699C531.889 472.389 531.748 473.067 531.566 473.729L531.249 475.26C531.024 476.413 530.812 477.566 530.614 478.701C530.415 479.837 530.27 480.852 530.124 481.919C530.058 482.452 530.005 482.968 529.952 483.484C529.119 481.936 528.259 480.405 527.386 478.908C524.898 474.658 522.279 470.563 519.553 466.554C519.553 466.554 519.553 466.554 519.553 466.451C519.804 460.068 519.685 453.736 520.77 447.525C520.77 447.353 520.611 447.249 520.572 447.421C519.339 453.348 518.751 459.469 518.825 465.608C517.86 464.197 516.867 462.786 515.875 461.392C513.586 458.209 511.271 455.061 508.902 451.998C508.81 451.878 508.651 451.998 508.744 452.187C512.713 457.71 516.431 463.457 520.082 469.307C517.225 469.247 514.368 469.384 511.522 469.72C508.36 470.012 505.211 470.546 502.062 471.114C501.917 471.114 501.956 471.406 502.062 471.389C505.192 470.789 508.346 470.422 511.509 470.288C514.565 470.116 517.595 470.288 520.651 470.288C522.627 473.454 524.572 476.654 526.486 479.888H526.089C525.375 479.888 524.66 479.888 523.946 479.888C522.517 479.888 521.101 480.061 519.685 480.215C516.778 480.529 513.892 481.104 511.046 481.936C511.018 481.936 510.991 481.95 510.971 481.976C510.951 482.002 510.94 482.037 510.94 482.074C510.94 482.11 510.951 482.145 510.971 482.171C510.991 482.197 511.018 482.211 511.046 482.211C513.917 481.781 516.801 481.437 519.685 481.299C521.008 481.299 522.451 481.299 523.827 481.299H526.089C526.484 481.37 526.887 481.322 527.267 481.162C528.519 483.284 529.772 485.411 531.024 487.545C532.016 489.266 532.995 490.986 533.961 492.707C534.927 494.427 535.84 496.406 536.925 498.058C536.978 497.937 537.123 497.782 537.07 497.645Z" fill="#263238"/>
<path d="M511.813 462.046C510.155 461.771 508.483 461.667 506.812 461.736C505.145 461.736 503.465 461.736 501.798 461.874C501.652 461.874 501.666 462.149 501.798 462.149C503.491 461.977 505.185 461.942 506.878 461.977C508.572 462.011 510.16 462.218 511.787 462.149C511.866 462.149 511.866 462.063 511.813 462.046Z" fill="#263238"/>
<path d="M526.5 466.95C526.685 464.869 526.884 462.787 527.228 460.739C527.228 460.703 527.217 460.668 527.197 460.642C527.177 460.616 527.15 460.602 527.122 460.602C527.094 460.602 527.067 460.616 527.047 460.642C527.027 460.668 527.016 460.703 527.016 460.739C526.778 462.787 526.474 464.817 526.249 466.864C526.13 467.88 526.024 468.912 525.918 469.927C525.784 470.886 525.722 471.86 525.733 472.835C525.742 472.873 525.76 472.907 525.785 472.931C525.81 472.955 525.841 472.968 525.872 472.968C525.903 472.968 525.933 472.955 525.958 472.931C525.983 472.907 526.001 472.873 526.01 472.835C526.149 471.875 526.229 470.903 526.249 469.927C526.315 468.929 526.407 467.931 526.5 466.95Z" fill="#263238"/>
<path d="M523.443 443.929C523.033 445.96 522.623 448.007 522.345 450.054C522.2 451.104 522.067 452.154 521.961 453.203C521.816 454.218 521.763 455.252 521.803 456.283C521.803 456.306 521.81 456.328 521.822 456.344C521.834 456.36 521.851 456.369 521.869 456.369C521.886 456.369 521.903 456.36 521.916 456.344C521.928 456.328 521.935 456.306 521.935 456.283C522.12 455.324 522.24 454.345 522.292 453.358C522.398 452.343 522.517 451.345 522.649 450.33C522.94 448.213 523.232 446.114 523.642 444.032C523.655 443.86 523.443 443.757 523.443 443.929Z" fill="#263238"/>
<path d="M462.582 567.293C462.318 563.474 462.027 559.637 461.722 555.817C461.096 548.247 460.395 540.682 459.619 533.123C458.838 525.604 458.097 518.051 457.158 510.549C456.82 507.041 456.222 503.584 455.372 500.226C455.069 498.793 454.518 497.47 453.762 496.357C453.005 495.245 452.062 494.373 451.005 493.808C445.501 491.348 441.744 498.763 439.574 504.011C439.508 504.166 439.68 504.286 439.759 504.149C441.082 501.654 444.761 494.685 448.941 495.012C451.746 495.219 453.996 497.817 455.345 506.919C458.706 529.613 461.736 575.741 462.093 578.683C462.278 580.283 463.138 580.215 463.151 578.494C463.098 574.812 462.767 571.044 462.582 567.293Z" fill="#263238"/>
<path d="M440.99 501.276C440.99 501.276 445.806 479.184 435.169 490.23C417.466 508.622 416.844 548.557 416.844 548.557C416.844 548.557 448.307 524.796 452.21 509.121C458.044 485.825 440.99 501.276 440.99 501.276Z" fill="url(#paint1_linear_96_145)"/>
<path d="M446.944 512.116C444.483 512.77 441.969 513.2 439.482 513.665L435.936 514.318C435.142 514.456 434.335 514.559 433.528 514.68C435.87 510.481 438.238 506.301 440.487 502.016C440.508 501.98 440.517 501.934 440.512 501.889C440.507 501.844 440.489 501.803 440.461 501.775C440.433 501.748 440.397 501.736 440.363 501.743C440.328 501.749 440.296 501.773 440.275 501.81C438.399 504.312 436.633 506.948 434.983 509.707L433.581 504.546C433.051 502.567 432.469 500.605 432.086 498.558C432.086 498.386 431.847 498.558 431.887 498.644C432.311 500.657 432.615 502.739 433.038 504.769C433.462 506.799 433.898 508.658 434.427 510.568C433.276 512.512 432.165 514.508 431.093 516.521C430.551 514.525 429.876 512.598 429.413 510.568C429.413 510.395 429.162 510.482 429.201 510.568C429.77 512.821 430.075 515.144 430.604 517.45C429.876 518.826 429.162 520.203 428.474 521.579C427.151 524.143 426 526.741 424.835 529.356C424.744 529.407 424.668 529.495 424.618 529.606C424.568 529.718 424.547 529.847 424.557 529.976C422.573 534.449 420.681 538.974 418.815 543.551C418.801 543.583 418.798 543.621 418.805 543.656C418.812 543.692 418.83 543.722 418.855 543.74C418.88 543.758 418.909 543.763 418.936 543.753C418.963 543.744 418.986 543.72 419.001 543.688C420.866 539.163 422.97 534.759 425.1 530.44C425.434 530.297 425.781 530.21 426.132 530.182L427.217 529.872C428.024 529.649 428.831 529.373 429.638 529.115C431.239 528.599 432.813 528.1 434.441 527.739C434.573 527.739 434.507 527.446 434.441 527.481C432.535 527.945 430.63 528.238 428.699 528.513C427.786 528.651 426.886 528.806 425.986 528.995H425.854C426.974 526.77 428.121 524.556 429.294 522.353C430.432 520.203 431.609 518.069 432.787 515.936C433.885 515.746 434.957 515.368 436.042 515.11L439.693 514.181C442.128 513.544 444.562 512.839 447.01 512.323C447.142 512.426 447.076 512.082 446.944 512.116Z" fill="#263238"/>
<path d="M428.037 514.3C427.891 513.715 427.759 513.131 427.614 512.58C427.318 511.36 427.075 510.119 426.886 508.863C426.886 508.691 426.661 508.777 426.687 508.863C426.899 510.12 427.124 511.358 427.336 512.597C427.528 513.847 427.803 515.073 428.156 516.262C428.178 516.312 428.212 516.351 428.254 516.373C428.295 516.394 428.34 516.397 428.383 516.382C428.425 516.366 428.463 516.332 428.489 516.285C428.515 516.239 428.528 516.182 428.527 516.124C428.381 515.539 428.183 514.92 428.037 514.3Z" fill="#263238"/>
<path d="M450.158 507.006C448.729 507.281 447.287 507.419 445.832 507.591C444.376 507.763 442.961 508.004 441.519 508.296C441.439 508.296 441.439 508.468 441.519 508.451C442.961 508.33 444.403 508.176 445.845 507.935C447.287 507.694 448.716 507.419 450.171 507.281C450.304 507.264 450.291 506.988 450.158 507.006Z" fill="#263238"/>
<path d="M485.67 539.335C485.101 523.075 484.347 506.833 483.024 490.643C482.402 482.573 481.701 474.521 480.828 466.555C480.056 458.661 478.858 450.847 477.242 443.172C476.134 437.205 474.099 431.596 471.262 426.689C469.86 424.303 468.015 422.419 465.9 421.215C463.784 420.011 461.468 419.526 459.169 419.807C453.705 420.684 449.286 425.175 445.475 430.044C441.202 435.516 437.286 441.486 433.33 447.25C432.324 448.73 431.332 450.227 430.34 451.723C430.26 451.861 430.406 452.05 430.498 451.913C434.375 446.132 438.437 440.505 442.604 435.137C446.494 430.165 450.543 424.814 455.835 422.68C458.341 421.647 461.021 421.564 463.562 422.439C465.586 423.271 467.409 424.77 468.854 426.792C471.897 430.887 473.59 436.445 474.808 441.83C478.168 456.782 479.372 472.456 480.616 487.89C481.86 503.323 482.746 519.29 483.355 535.05C483.963 550.811 484.44 566.726 485.617 582.521C485.763 584.465 485.948 586.409 486.146 588.353C486.265 589.644 487.827 589.661 487.747 588.353C486.808 572.008 486.226 555.68 485.67 539.335Z" fill="#263238"/>
<path d="M444.814 431.765C444.814 431.765 451.958 414.559 443.491 409.054C435.023 403.548 406.815 444.532 398.573 504.476C398.573 504.476 444.179 478.237 459.672 452.085C475.165 425.932 457.621 420.186 444.814 431.765Z" fill="url(#paint2_linear_96_145)"/>
<path d="M451.521 445.735C446.401 445.735 441.281 445.236 436.161 445.27L439.045 440.986C440.469 439.083 441.795 437.06 443.014 434.929C443.08 434.792 442.935 434.602 442.829 434.706C441.436 436.256 440.14 437.948 438.952 439.764C437.629 441.485 436.385 443.309 435.115 445.098C433.157 447.868 431.239 450.655 429.32 453.477C429.32 453.202 429.32 452.926 429.32 452.668C429.32 451.498 429.32 450.328 429.32 449.227C429.32 446.973 429.32 444.702 429.32 442.448C429.32 437.872 429.32 433.26 429.585 428.684C429.585 428.512 429.386 428.512 429.373 428.684C429.135 433.295 428.765 437.872 428.593 442.448C428.513 444.719 428.474 446.973 428.447 449.244C428.447 450.397 428.447 451.567 428.447 452.686C428.447 453.322 428.447 453.993 428.447 454.647C428.156 455.094 427.838 455.525 427.547 455.955C423.459 462.045 419.609 468.326 415.772 474.726C415.772 474.382 415.772 474.003 415.706 473.659C415.706 472.954 415.587 472.248 415.534 471.543C415.402 470.012 415.243 468.498 415.058 466.966C414.872 465.435 414.727 464.11 414.542 462.682C414.356 461.254 414.026 459.465 413.933 457.847C413.939 457.826 413.941 457.804 413.939 457.782C413.937 457.76 413.93 457.739 413.921 457.721C413.911 457.703 413.898 457.688 413.883 457.677C413.868 457.667 413.851 457.662 413.834 457.662C413.817 457.662 413.8 457.667 413.785 457.677C413.77 457.688 413.757 457.703 413.747 457.721C413.737 457.739 413.731 457.76 413.729 457.782C413.727 457.804 413.729 457.826 413.735 457.847C413.942 459.465 414.083 461.096 414.158 462.734L414.476 467.138C414.568 468.601 414.674 470.063 414.793 471.543L414.952 473.659C414.952 474.003 415.018 474.365 415.058 474.709C415.07 475.009 415.143 475.3 415.269 475.552L413.324 478.855C410.678 483.312 408.191 487.82 405.651 492.31C405.571 492.448 405.73 492.637 405.809 492.499C408.217 488.422 410.692 484.413 413.192 480.456C415.071 480.559 416.989 480.369 418.868 480.335C420.747 480.301 422.837 480.335 424.795 480.335C424.823 480.335 424.85 480.321 424.87 480.295C424.89 480.269 424.901 480.234 424.901 480.197C424.901 480.161 424.89 480.126 424.87 480.1C424.85 480.074 424.823 480.06 424.795 480.06C422.811 480.06 420.826 480.146 418.855 480.163C416.883 480.18 415.216 480.06 413.417 480.163C415.613 476.722 417.849 473.281 420.032 469.754L422.626 465.968C423.384 466.097 424.151 466.132 424.914 466.072H427.561C429.241 466.072 430.921 466.072 432.615 465.986C436.094 465.986 439.574 465.762 443.054 465.745C443.07 465.752 443.087 465.755 443.104 465.752C443.121 465.749 443.137 465.741 443.151 465.729C443.165 465.716 443.176 465.699 443.184 465.679C443.192 465.66 443.196 465.638 443.196 465.616C443.196 465.593 443.192 465.572 443.184 465.552C443.176 465.532 443.165 465.515 443.151 465.503C443.137 465.49 443.121 465.482 443.104 465.479C443.087 465.476 443.07 465.479 443.054 465.487C439.561 465.487 436.081 465.229 432.601 465.108C430.908 465.108 429.228 464.988 427.534 464.953H424.888C424.385 464.953 423.856 464.953 423.327 464.953L429.082 456.092C429.127 456.053 429.163 456 429.188 455.938C431.054 453.064 432.919 450.208 434.811 447.335C435.076 446.956 435.34 446.578 435.592 446.182C440.884 446.388 446.176 445.941 451.468 446.079C451.667 446.01 451.667 445.735 451.521 445.735Z" fill="#263238"/>
<path d="M448.902 457.521H447.658C447.634 457.521 447.61 457.534 447.593 457.557C447.575 457.579 447.566 457.61 447.566 457.642C447.566 457.674 447.575 457.705 447.593 457.727C447.61 457.75 447.634 457.762 447.658 457.762H448.889C448.906 457.752 448.921 457.736 448.932 457.716C448.942 457.695 448.949 457.672 448.95 457.647C448.952 457.622 448.948 457.598 448.939 457.576C448.931 457.554 448.918 457.535 448.902 457.521Z" fill="#263238"/>
<path d="M446.137 457.539C444.496 457.539 442.856 457.539 441.215 457.402L438.767 457.367C438.007 457.247 437.239 457.247 436.478 457.367C436.457 457.367 436.437 457.378 436.422 457.398C436.407 457.417 436.399 457.443 436.399 457.471C436.399 457.498 436.407 457.524 436.422 457.544C436.437 457.563 436.457 457.574 436.478 457.574C437.236 457.772 438.01 457.841 438.781 457.78H441.241H446.163C446.282 457.815 446.282 457.539 446.137 457.539Z" fill="#263238"/>
<path d="M431.808 477.565C428.472 476.835 425.097 476.438 421.714 476.378V476.464C425.074 476.877 428.421 477.118 431.756 477.823C431.888 477.858 431.941 477.582 431.808 477.565Z" fill="#263238"/>
<path d="M418.088 458.468C418.088 458.089 418.022 457.711 417.982 457.332C417.903 456.472 417.797 455.612 417.691 454.769C417.493 453.134 417.281 451.517 417.043 449.882C417.043 449.745 416.818 449.779 416.831 449.882C416.99 451.603 417.136 453.237 417.255 454.924L417.413 457.401C417.396 458.194 417.481 458.985 417.665 459.741C417.691 459.793 417.728 459.833 417.772 459.859C417.815 459.884 417.864 459.893 417.911 459.884C417.958 459.875 418.002 459.848 418.038 459.808C418.074 459.767 418.101 459.714 418.115 459.655C418.161 459.26 418.152 458.858 418.088 458.468Z" fill="#263238"/>
<path d="M485.22 409.689C483.58 405.732 481.502 400.519 477.427 400.846C474.067 401.121 472.545 405.577 471.831 409.276C469.608 420.684 469.449 432.728 469.026 444.428C468.1 469.152 467.279 493.894 467.16 518.653C467.16 525.535 467.16 532.417 467.16 539.299C467.16 546.302 467.16 553.339 467.531 560.325C467.531 560.462 467.573 560.593 467.647 560.69C467.722 560.786 467.823 560.841 467.928 560.841C468.033 560.841 468.134 560.786 468.208 560.69C468.283 560.593 468.325 560.462 468.325 560.325C468.325 554.337 468.192 548.281 468.179 542.362C468.166 536.443 468.179 530.679 468.259 524.829C468.409 513.003 468.651 501.177 468.986 489.351C469.33 477.6 469.727 465.849 470.111 454.097C470.296 448.23 470.495 442.346 470.693 436.479C470.891 430.611 471.077 425.106 471.579 419.445C471.857 416.262 472.215 413.096 472.731 409.982C472.982 407.659 473.708 405.466 474.834 403.633C475.611 402.635 476.637 402.031 477.726 401.93C478.816 401.829 479.897 402.238 480.775 403.082C482.64 404.83 484.1 407.211 484.995 409.965C485.023 410.004 485.062 410.026 485.103 410.028C485.144 410.029 485.184 410.01 485.214 409.973C485.243 409.937 485.261 409.886 485.262 409.833C485.263 409.78 485.248 409.728 485.22 409.689Z" fill="#263238"/>
<path d="M484.108 407.797C484.108 407.797 480.761 392.415 488.17 400.106C500.501 412.907 500.938 440.763 500.938 440.763C500.938 440.763 479.015 424.211 476.289 413.234C472.227 397.026 484.108 407.797 484.108 407.797Z" fill="url(#paint3_linear_96_145)"/>
<path d="M496.32 429.356C496.122 428.926 495.91 428.513 495.698 428.083C495.725 427.648 495.725 427.211 495.698 426.775C495.698 426.122 495.698 425.451 495.698 424.797C495.698 423.489 495.698 422.181 495.804 420.891C495.804 420.854 495.793 420.82 495.773 420.794C495.753 420.768 495.726 420.753 495.698 420.753C495.67 420.753 495.643 420.768 495.623 420.794C495.603 420.82 495.592 420.854 495.592 420.891C495.592 422.164 495.5 423.455 495.473 424.728C495.473 425.364 495.473 426.001 495.473 426.638C495.473 426.879 495.473 427.171 495.473 427.464C494.613 425.743 493.727 424.022 492.827 422.302C492.562 421.803 492.285 421.321 492.02 420.839C491.879 419.171 491.857 417.489 491.954 415.815C491.954 414.095 491.954 412.237 492.033 410.447C492.033 410.275 491.822 410.275 491.822 410.447C491.822 412.305 491.716 414.164 491.636 416.022C491.55 417.344 491.524 418.671 491.557 419.996C489.44 416.263 487.191 412.65 484.942 409.054C484.862 408.933 484.703 409.054 484.783 409.226C486.185 411.548 487.535 413.923 488.858 416.332C486.278 415.54 483.658 415.093 481.039 414.611C480.906 414.611 480.853 414.852 481.039 414.886C483.817 415.437 486.543 416.331 489.281 417.123C490.326 419.05 491.372 420.977 492.39 422.921L493.634 425.296H493.528L492.668 425.141L490.842 424.934C489.586 424.797 488.315 424.711 487.045 424.625C486.913 424.625 486.926 424.9 487.045 424.9C488.289 424.9 489.533 425.055 490.763 425.227L492.734 425.537L493.581 425.674H493.833C494.534 427.016 495.248 428.358 495.936 429.7C497.18 432.092 498.291 434.638 499.601 436.927C499.618 436.946 499.639 436.958 499.662 436.96C499.684 436.962 499.707 436.955 499.726 436.94C499.745 436.925 499.76 436.902 499.769 436.875C499.777 436.847 499.779 436.817 499.773 436.789C498.738 434.223 497.585 431.741 496.32 429.356Z" fill="#263238"/>
<path d="M490.869 411.977C490.869 411.375 490.869 410.773 490.869 410.171C490.842 408.913 490.882 407.654 490.988 406.403C490.994 406.382 490.996 406.36 490.994 406.338C490.992 406.316 490.986 406.295 490.976 406.276C490.966 406.258 490.953 406.243 490.938 406.233C490.923 406.223 490.906 406.217 490.889 406.217C490.872 406.217 490.855 406.223 490.84 406.233C490.825 406.243 490.812 406.258 490.802 406.276C490.792 406.295 490.786 406.316 490.784 406.338C490.782 406.36 490.784 406.382 490.79 406.403C490.79 407.659 490.684 408.898 490.631 410.136C490.631 410.773 490.631 411.392 490.631 412.012V412.872C490.598 413.169 490.598 413.47 490.631 413.767C490.631 413.799 490.641 413.829 490.658 413.852C490.675 413.875 490.699 413.887 490.724 413.887C490.748 413.887 490.772 413.875 490.789 413.852C490.806 413.829 490.816 413.799 490.816 413.767C490.849 413.493 490.849 413.215 490.816 412.941L490.869 411.977Z" fill="#263238"/>
<path d="M488.157 418.343C487.337 418.154 486.504 418.102 485.683 418.016C484.863 417.93 483.884 417.81 483.037 417.655C483.009 417.655 482.982 417.669 482.962 417.695C482.943 417.721 482.931 417.756 482.931 417.792C482.931 417.829 482.943 417.864 482.962 417.89C482.982 417.916 483.009 417.93 483.037 417.93C484.77 418.068 486.49 418.481 488.224 418.549C488.237 418.567 488.25 418.36 488.157 418.343Z" fill="#263238"/>
<path d="M495.037 418.431C495.103 418.551 495.037 418.896 495.037 419.033V420.599C495.037 420.96 495.037 421.322 495.037 421.683C494.991 421.99 494.991 422.305 495.037 422.612C495.037 422.612 495.103 422.612 495.116 422.612C495.142 422.465 495.142 422.312 495.116 422.165C495.109 421.998 495.109 421.832 495.116 421.666V420.599C495.116 420.238 495.116 419.876 495.116 419.515V419.033C495.116 418.878 495.116 418.551 495.116 418.431C495.116 418.311 494.905 418.173 495.037 418.431Z" fill="#263238"/>
<path d="M485.723 491.778C481.119 487.288 476.978 480.818 470.773 480.491C465.652 480.233 462.067 485.24 460.016 490.815C458.991 493.789 458.154 496.868 457.516 500.02C456.589 504.218 455.707 508.445 454.87 512.7C453.273 521.062 451.906 529.493 450.768 537.993C450.146 542.724 449.564 547.473 449.101 552.239C448.519 557.07 448.161 561.942 448.029 566.829C448.027 567.017 448.078 567.199 448.174 567.341C448.269 567.482 448.401 567.572 448.545 567.593C448.688 567.615 448.833 567.566 448.95 567.457C449.068 567.347 449.15 567.185 449.18 567.001C449.802 563.01 450.067 558.898 450.503 554.871C450.94 550.845 451.43 546.768 451.946 542.741C453.004 534.712 454.23 526.683 455.624 518.654C456.947 511.1 458.27 503.444 460.109 496.097C461.432 490.832 463.602 484.69 467.981 482.797C474.596 479.924 480.669 487.236 485.538 492.002C485.684 492.088 485.829 491.882 485.723 491.778Z" fill="#263238"/>
<path d="M480.96 487.477C480.96 487.477 476.7 471.699 482.852 468.551C492.114 463.922 516.167 499.228 511.444 553.323C511.444 553.323 492.828 539.988 479.068 524.968C465.309 509.947 461.869 490.35 467.862 485.292C473.856 480.233 480.96 487.477 480.96 487.477Z" fill="url(#paint4_linear_96_145)"/>
<path d="M508.665 541.778C508.025 539.89 507.278 538.067 506.429 536.323C505.635 534.465 504.842 532.624 504.021 530.8C502.42 527.239 500.833 523.677 499.192 520.133L498.385 518.412C498.385 518.206 498.451 517.982 498.478 517.776L498.755 516.21C498.967 515.04 499.126 513.853 499.285 512.666C499.629 510.36 499.933 508.02 500.409 505.783C500.409 505.629 500.237 505.577 500.211 505.783C499.827 508.089 499.258 510.377 498.742 512.666C498.478 513.784 498.2 514.885 497.975 516.021L497.737 517.174C495.765 512.958 493.767 508.76 491.571 504.699C491.713 504.144 491.789 503.564 491.796 502.979C491.862 502.187 491.928 501.396 492.008 500.605C492.167 498.884 492.325 497.043 492.524 495.271C492.921 491.83 493.318 488.388 493.979 484.947C493.979 484.775 493.807 484.724 493.781 484.947C493.106 488.388 492.391 491.83 491.889 495.271C491.651 496.991 491.412 498.712 491.24 500.432C491.161 501.293 491.082 502.153 491.015 503.013C491.015 503.254 491.015 503.529 490.936 503.788C490.275 502.566 489.613 501.327 488.912 500.14C486.782 496.492 484.572 492.948 482.296 489.404C482.217 489.266 482.032 489.404 482.124 489.558C485.935 495.896 489.435 502.539 492.603 509.448L494.416 513.285L493.807 513.182C493.027 513.044 492.246 512.993 491.465 512.889L486.755 512.356C483.62 512.029 480.471 511.788 477.348 511.358C477.216 511.358 477.176 511.599 477.348 511.616C480.524 512.098 483.672 512.752 486.835 513.337C488.396 513.629 489.944 513.904 491.505 514.163C492.686 514.468 493.887 514.623 495.091 514.627C496.321 517.242 497.565 519.789 498.795 522.438C498.517 522.438 498.226 522.438 497.962 522.438H493.476C491.452 522.438 489.428 522.438 487.417 522.438C487.271 522.438 487.298 522.697 487.417 522.697C489.467 522.697 491.505 522.869 493.556 523.006L496.466 523.23L497.922 523.368C498.357 523.499 498.81 523.499 499.245 523.368L502.394 530.009C503.36 532.056 504.339 534.087 505.331 536.117C506.266 538.269 507.323 540.328 508.493 542.277C508.546 542.036 508.718 541.95 508.665 541.778Z" fill="#263238"/>
<path d="M499.787 498.059C499.601 499.803 499.323 501.527 498.953 503.221C498.609 504.941 498.226 506.662 497.789 508.382C497.782 508.404 497.779 508.428 497.779 508.452C497.779 508.476 497.784 508.499 497.791 508.521C497.799 508.542 497.81 508.562 497.824 508.578C497.838 508.593 497.854 508.605 497.872 508.612C497.889 508.619 497.907 508.622 497.926 508.619C497.944 508.617 497.962 508.609 497.977 508.597C497.993 508.585 498.007 508.569 498.018 508.55C498.029 508.531 498.036 508.509 498.04 508.486C498.451 506.765 498.821 505.044 499.139 503.324C499.456 501.603 499.668 499.883 499.999 498.076C500 498.04 499.991 498.004 499.972 497.976C499.954 497.949 499.927 497.932 499.899 497.93C499.871 497.928 499.844 497.94 499.823 497.964C499.802 497.988 499.789 498.022 499.787 498.059Z" fill="#263238"/>
<path d="M486.107 508.623C485.821 508.31 485.462 508.134 485.088 508.124L483.329 507.814C482.244 507.625 481.146 507.47 480.061 507.298C477.785 506.954 475.523 506.661 473.247 506.3C473.115 506.3 473.075 506.541 473.247 506.558C475.39 506.902 477.521 507.332 479.664 507.693L482.8 508.227L484.321 508.433C484.907 508.44 485.489 508.574 486.041 508.829C486.06 508.829 486.078 508.823 486.093 508.809C486.109 508.796 486.121 508.777 486.128 508.755C486.135 508.733 486.137 508.708 486.133 508.685C486.129 508.661 486.12 508.639 486.107 508.623Z" fill="#263238"/>
<path d="M499.761 532.417C498.69 532.297 497.605 532.245 496.533 532.211H494.906H494.125C493.786 532.254 493.445 532.254 493.106 532.211C492.961 532.211 492.948 532.503 493.106 532.469C493.423 532.426 493.742 532.426 494.059 532.469H494.906L496.52 532.607C497.592 532.693 498.676 532.779 499.748 532.779C499.88 532.71 499.894 532.417 499.761 532.417Z" fill="#263238"/>
<path d="M506.323 526.361L506.68 523.987C506.892 522.421 507.117 520.855 507.342 519.307C507.342 519.27 507.33 519.235 507.311 519.209C507.291 519.183 507.264 519.169 507.236 519.169C507.208 519.169 507.181 519.183 507.161 519.209C507.141 519.235 507.13 519.27 507.13 519.307L506.336 523.866C506.204 524.623 506.071 525.38 505.952 526.137C505.952 526.499 505.846 526.843 505.78 527.204C505.697 527.566 505.665 527.945 505.688 528.322C505.69 528.357 505.701 528.39 505.718 528.417C505.735 528.443 505.758 528.463 505.784 528.472C505.81 528.481 505.837 528.48 505.863 528.469C505.888 528.457 505.91 528.436 505.926 528.408C506.157 527.765 506.291 527.07 506.323 526.361Z" fill="#263238"/>
<path d="M443.266 560.772L444.562 579.956L448.968 644.701H487.959L493.463 579.956L495.09 560.772H443.266Z" fill="#37474F"/>
<path d="M443.266 560.772L444.562 579.956H493.463L495.09 560.772H443.266Z" fill="#263238"/>
<path d="M439.402 571.114H498.953V555.56H439.402V571.114Z" fill="#37474F"/>
<path d="M232.369 497.161C232.369 469.632 235.826 444.896 242.742 422.953C249.657 401.01 263.919 381.895 285.529 365.607C292.021 360.549 300.021 354.813 309.53 348.401C319.314 341.719 328.641 333.96 337.407 325.208C346.368 316.396 354.147 305.716 360.428 293.601C366.76 281.252 370.042 266.684 369.835 251.843C370.024 241.035 368.257 230.32 364.675 220.564C361.371 211.854 356.739 204.109 351.061 197.8C345.229 191.48 338.48 186.747 331.215 183.881C323.767 180.824 316.004 179.263 308.194 179.253C299.342 179.095 290.555 181.224 282.341 185.516C274.785 189.565 267.696 194.956 261.278 201.534C255.022 207.975 249.361 215.336 244.409 223.471C239.85 230.866 235.63 238.605 231.773 246.647H222.009L175.345 196.063C180.742 179.053 188.306 163.348 197.718 149.608C206.921 136.21 217.626 124.696 229.471 115.454C241.521 106.138 254.523 99.0827 268.092 94.4979C282.059 89.7004 296.447 87.2885 310.893 87.3231C327.364 87.3352 343.747 90.4591 359.528 96.597C375.266 102.62 389.923 112.657 402.647 126.122C415.791 140.27 426.413 157.965 433.779 177.98C441.77 199.062 445.766 224.223 445.766 253.461C445.966 269.566 444.329 285.621 440.91 301.103C437.806 314.495 433.095 327.165 426.952 338.646C420.868 349.932 413.676 360.136 405.558 368.997C396.743 378.546 387.423 387.28 377.668 395.132C369.015 401.899 360.371 408.369 351.736 414.54C343.378 420.469 335.455 427.38 328.066 435.187C321.108 442.521 315.181 451.37 310.549 461.339C306.015 471.181 303.748 483.127 303.748 497.179L232.369 497.161ZM233.692 693.632V577.271H305.667V693.632H233.692Z" fill="url(#paint5_linear_96_145)"/>
<g opacity="0.2">
<path d="M232.37 497.162C232.37 469.633 235.828 444.897 242.743 422.954C249.658 401.011 263.921 381.896 285.531 365.608C292.023 360.55 300.023 354.814 309.531 348.402C319.316 341.72 328.642 333.961 337.408 325.209C346.37 316.396 354.148 305.717 360.429 293.602C366.762 281.253 370.044 266.685 369.836 251.844C370.026 241.036 368.258 230.321 364.676 220.565C361.373 211.854 356.741 204.11 351.062 197.801C345.23 191.481 338.481 186.747 331.216 183.882C323.768 180.825 316.005 179.264 308.195 179.254C299.344 179.096 290.556 181.225 282.342 185.517C274.786 189.566 267.698 194.956 261.279 201.535C255.023 207.976 249.363 215.337 244.41 223.472C239.851 230.867 235.632 238.606 231.775 246.648H222.011L175.346 196.064C180.744 179.054 188.307 163.349 197.719 149.608C206.922 136.211 217.627 124.697 229.473 115.455C241.523 106.139 254.525 99.0837 268.093 94.4988C282.06 89.7013 296.448 87.2895 310.894 87.3241C327.366 87.3361 343.749 90.46 359.53 96.5979C375.267 102.621 389.925 112.658 402.648 126.123C415.792 140.271 426.415 157.966 433.78 177.981C441.771 199.063 445.767 224.224 445.767 253.462C445.967 269.567 444.331 285.622 440.911 301.104C437.807 314.496 433.096 327.166 426.953 338.647C420.87 349.933 413.677 360.137 405.559 368.997C396.744 378.547 387.425 387.281 377.669 395.133C369.016 401.9 360.372 408.37 351.737 414.541C343.379 420.47 335.457 427.381 328.067 435.188C321.109 442.522 315.182 451.371 310.55 461.34C306.016 471.182 303.749 483.128 303.749 497.179L232.37 497.162ZM233.693 693.633V577.272H305.668V693.633H233.693Z" fill="black"/>
</g>
<path d="M222.658 497.162C222.658 469.632 226.115 444.897 233.03 422.954C239.946 401.011 254.213 381.895 275.831 365.607C282.314 360.549 290.31 354.814 299.819 348.402C309.609 341.724 318.94 333.964 327.709 325.208C336.667 316.391 344.446 305.712 350.73 293.602C357.052 281.247 360.329 266.681 360.124 251.844C360.294 241.061 358.518 230.377 354.937 220.65C351.634 211.94 347.002 204.195 341.323 197.887C335.491 191.566 328.742 186.833 321.477 183.967C314.029 180.91 306.266 179.349 298.456 179.339C289.604 179.148 280.812 181.248 272.59 185.516C265.03 189.566 257.937 194.956 251.514 201.534C245.262 207.975 239.606 215.337 234.658 223.471C230.094 230.866 225.871 238.605 222.009 246.647L165.594 196.063C170.987 179.05 178.551 163.345 187.967 149.608C197.166 136.206 207.872 124.691 219.72 115.454C231.767 106.141 244.764 99.0857 258.327 94.498C272.307 89.6945 286.709 87.2826 301.168 87.3233C317.64 87.3341 334.023 90.458 349.804 96.5971C365.542 102.616 380.201 112.653 392.923 126.122C406.069 140.267 416.692 157.962 424.054 177.98C432.046 199.062 436.046 224.223 436.054 253.461C436.25 269.567 434.61 285.623 431.186 301.103C428.074 314.5 423.349 327.172 417.188 338.646C411.104 349.932 403.912 360.136 395.794 368.997C386.983 378.555 377.663 387.288 367.903 395.132C359.268 401.9 350.624 408.369 341.971 414.54C333.614 420.469 325.691 427.38 318.302 435.187C311.347 442.521 305.425 451.37 300.798 461.339C296.264 471.181 293.993 483.127 293.984 497.179L222.658 497.162ZM223.981 693.633V577.271H295.876V693.633H223.981Z" fill="url(#paint6_linear_96_145)"/>
<path d="M192.995 702.94C190.177 704.11 109.827 702.768 106.797 700.187C105.633 699.223 105.104 683.996 104.866 665.552V664.984C104.866 661.182 104.773 657.259 104.76 653.302C104.76 652.751 104.76 652.2 104.76 651.667C104.654 625.067 104.971 597.452 104.971 597.452L158.728 598.158L157.1 651.788L157.034 653.921L156.703 665.036V666.171C156.703 666.171 187.253 684.65 190.362 687.919C193.471 691.188 195.813 701.77 192.995 702.94Z" fill="#AD6359"/>
<path d="M192.995 702.939C190.177 704.109 109.827 702.767 106.797 700.186C105.633 699.223 105.104 683.996 104.865 665.551V664.984C104.865 661.181 104.773 657.258 104.76 653.301C104.76 652.75 104.76 652.2 104.76 651.667L157.113 651.856L157.047 653.989L156.716 665.104V666.24C156.716 666.24 187.253 684.65 190.362 687.919C193.471 691.188 195.813 701.769 192.995 702.939Z" fill="#EBEBEB"/>
<path d="M192.994 702.94C191.261 703.662 160.129 703.421 135.758 702.527C120.543 701.993 107.974 701.167 106.797 700.187C105.619 699.206 105.116 684.426 104.878 666.326C104.878 666.068 104.878 665.81 104.878 665.552C104.878 665.294 104.878 665.156 104.878 664.967L156.729 665.104V666.24C156.729 666.24 187.318 684.65 190.414 687.936C193.51 691.223 195.812 701.77 192.994 702.94Z" fill="url(#paint7_linear_96_145)"/>
<path d="M192.134 698.862C178.586 698.208 123.93 697.141 110.501 697.881C110.396 697.881 110.396 697.984 110.501 698.001C123.917 699.034 178.573 699.464 192.121 699.154C192.412 699.154 192.412 698.879 192.134 698.862Z" fill="#263238"/>
<path d="M162.471 665.379C157.179 664.003 150.63 664.949 146.502 669.818C146.343 670.008 146.502 670.3 146.727 670.231C151.843 668.186 157.112 666.854 162.445 666.257C162.523 666.241 162.596 666.19 162.649 666.112C162.702 666.035 162.733 665.936 162.736 665.832C162.739 665.728 162.714 665.627 162.666 665.544C162.618 665.461 162.549 665.403 162.471 665.379Z" fill="#263238"/>
<path d="M166.295 668.46C161.003 667.083 154.453 668.03 150.325 672.899C150.167 673.088 150.325 673.381 150.55 673.312C155.649 671.27 160.9 669.938 166.215 669.337C166.297 669.333 166.375 669.291 166.435 669.218C166.495 669.146 166.533 669.048 166.543 668.943C166.553 668.837 166.533 668.73 166.487 668.642C166.442 668.553 166.374 668.489 166.295 668.46Z" fill="#263238"/>
<path d="M170.106 671.539C164.814 670.163 158.265 671.109 154.137 675.978C153.978 676.168 154.137 676.46 154.362 676.391C159.478 674.352 164.747 673.026 170.08 672.434C170.171 672.439 170.26 672.396 170.327 672.315C170.394 672.234 170.433 672.122 170.437 672.004C170.44 671.885 170.407 671.77 170.345 671.683C170.283 671.595 170.197 671.544 170.106 671.539Z" fill="#263238"/>
<path d="M169.563 650.376C167.499 646.591 163.583 648.225 161.334 650.617C157.531 654.817 154.647 660.247 152.972 666.36C152.963 666.386 152.96 666.414 152.961 666.442C152.963 666.471 152.97 666.498 152.982 666.522C152.994 666.546 153.01 666.565 153.029 666.579C153.048 666.593 153.069 666.6 153.091 666.601C153.091 667.134 153.462 667.702 153.925 667.478C158.344 665.431 163.265 664.037 167.076 660.217C169.299 658.032 171.508 653.972 169.563 650.376ZM160.13 662.592C157.973 663.676 155.79 664.605 153.673 665.775C155.314 662.712 156.835 659.581 158.714 656.725C159.605 655.343 160.559 654.033 161.572 652.802C163.186 650.961 169.51 647.072 168.478 654.66C167.923 658.841 162.71 661.319 160.13 662.592Z" fill="#263238"/>
<path d="M139.437 664.313C143.803 666.825 148.857 666.791 153.527 667.462C154.004 667.462 154.255 666.86 154.176 666.344C154.196 666.335 154.215 666.32 154.231 666.3C154.246 666.281 154.258 666.257 154.266 666.23C154.273 666.204 154.276 666.176 154.275 666.148C154.273 666.12 154.266 666.093 154.255 666.068C151.534 660.629 147.767 656.21 143.327 653.25C140.68 651.53 136.605 651.185 135.282 655.487C133.959 659.788 136.883 662.851 139.437 664.313ZM137.082 659.324C134.753 652.252 141.593 654.162 143.472 655.47C144.686 656.345 145.849 657.334 146.952 658.429C149.218 660.711 151.391 663.146 153.461 665.724C151.186 665.208 148.897 664.967 146.608 664.554C143.882 664.09 138.431 663.229 137.108 659.324H137.082Z" fill="#263238"/>
<path d="M135.786 702.528C120.57 701.995 108.001 701.169 106.824 700.188C105.646 699.208 105.143 684.428 104.905 666.328C111.124 673.571 126.63 691.551 135.786 702.528Z" fill="#263238"/>
<path d="M88.4725 296.457C88.4725 296.457 100.539 473.021 102.497 486.493C102.96 489.573 103.238 506.263 103.423 527.701C103.833 574.517 103.595 658.928 103.595 658.928H160.236C160.236 658.928 158.555 512.68 156.041 485.753C153.528 458.827 137.519 296.491 137.519 296.491L88.4725 296.457Z" fill="#37474F"/>
<path d="M157.668 646.092C148.83 645.851 151.37 645.765 142.532 645.645C138.206 645.645 109.786 645.283 105.738 646.144C105.713 646.144 105.69 646.156 105.672 646.179C105.655 646.201 105.645 646.232 105.645 646.264C105.645 646.296 105.655 646.327 105.672 646.349C105.69 646.372 105.713 646.384 105.738 646.384C109.786 647.245 138.206 646.935 142.532 646.866C151.37 646.763 148.83 646.677 157.668 646.436C157.703 646.436 157.737 646.418 157.762 646.386C157.787 646.353 157.8 646.31 157.8 646.264C157.8 646.218 157.787 646.175 157.762 646.142C157.737 646.11 157.703 646.092 157.668 646.092Z" fill="#263238"/>
<path d="M114.351 562.491C114.281 551.8 114.219 541.116 114.166 530.437C114.166 520.113 114.166 509.79 113.742 499.467C112.975 478.527 109.773 457.949 107.392 437.251C105.01 416.553 103.132 395.768 101.372 374.967C99.4005 351.636 97.6673 328.253 95.8282 304.905C95.8282 304.75 95.6165 304.75 95.6297 304.905C98.2759 346.612 101.279 388.301 105.711 429.749C106.823 440.073 108.031 450.362 109.337 460.616C110.66 470.94 111.983 481.401 112.605 491.913C113.226 502.426 113.319 512.56 113.398 522.883C113.496 533.574 113.579 544.253 113.65 554.92C113.822 578.63 113.994 615.14 114.179 638.849C114.193 638.93 114.227 639.001 114.276 639.053C114.326 639.104 114.387 639.132 114.45 639.132C114.514 639.132 114.575 639.104 114.624 639.053C114.673 639.001 114.708 638.93 114.722 638.849C114.616 617.583 114.47 583.637 114.351 562.491Z" fill="#263238"/>
<path d="M76.5253 296.457C76.5253 296.457 100.539 473.021 102.497 486.493C102.96 489.573 103.238 506.263 103.423 527.701L130.493 296.457H76.5253Z" fill="#263238"/>
<path d="M127.225 709.168C124.354 710.08 44.2686 701.322 41.3843 698.483C40.2729 697.417 40.5772 682.172 41.3843 663.762C41.3843 663.573 41.3843 663.367 41.3843 663.177C41.5431 659.392 41.715 655.487 41.9267 651.529L42.0061 649.809C43.3292 623.26 45.1682 595.749 45.1682 595.749L98.7391 601.495L94.201 654.833L94.029 656.949L93.1028 668.012L93.0102 669.148C93.0102 669.148 122.501 690.328 125.425 693.889C128.349 697.451 130.096 708.256 127.225 709.168Z" fill="#AD6359"/>
<path d="M127.225 709.17C124.354 710.081 44.2686 701.324 41.3843 698.485C40.2729 697.418 40.5772 682.174 41.3843 663.764C41.3843 663.575 41.3843 663.368 41.3843 663.179C41.5431 659.394 41.715 655.488 41.9267 651.531L42.0061 649.81L94.201 654.817L94.029 656.933L93.1028 667.996L93.0102 669.132C93.0102 669.132 122.501 690.312 125.425 693.874C128.349 697.435 130.096 708.258 127.225 709.17Z" fill="#EBEBEB"/>
<path d="M127.225 709.167C124.354 710.079 44.2686 701.322 41.3843 698.483C40.2729 697.416 40.5772 682.172 41.3843 663.762C41.3843 663.572 41.3843 663.366 41.3843 663.177L93.1028 668.08L93.0102 669.216C93.0102 669.216 122.501 690.396 125.425 693.958C128.349 697.519 130.096 708.256 127.225 709.167Z" fill="url(#paint8_linear_96_145)"/>
<path d="M126.524 705.022C113.055 703.112 58.5849 697.09 45.1558 696.522C45.05 696.522 45.0368 696.626 45.1558 696.643C58.4659 698.914 112.976 704.368 126.511 705.246C126.842 705.332 126.868 705.125 126.524 705.022Z" fill="#263238"/>
<path d="M98.8184 668.889C93.5261 667.031 87.0299 667.375 82.6506 671.849C82.4786 672.021 82.6506 672.348 82.849 672.296C88.0564 670.717 93.3792 669.869 98.7258 669.767C98.8086 669.766 98.8885 669.727 98.9507 669.656C99.013 669.585 99.0535 669.487 99.0647 669.38C99.076 669.274 99.0573 669.165 99.012 669.075C98.9668 668.985 98.898 668.919 98.8184 668.889Z" fill="#263238"/>
<path d="M102.47 672.312C97.1775 670.454 90.668 670.798 86.2887 675.272C86.1299 675.444 86.2887 675.771 86.4871 675.719C91.6947 674.14 97.0174 673.293 102.364 673.19C102.448 673.194 102.53 673.157 102.595 673.088C102.66 673.018 102.703 672.92 102.716 672.812C102.729 672.704 102.711 672.594 102.666 672.501C102.62 672.409 102.551 672.342 102.47 672.312Z" fill="#263238"/>
<path d="M106.108 675.737C100.816 673.879 94.3066 674.223 89.9273 678.696C89.7685 678.869 89.9273 679.195 90.139 679.144C95.3462 677.563 100.669 676.715 106.016 676.615C106.099 676.614 106.178 676.575 106.241 676.504C106.303 676.433 106.343 676.335 106.355 676.228C106.366 676.121 106.347 676.013 106.302 675.923C106.257 675.833 106.188 675.767 106.108 675.737Z" fill="#263238"/>
<path d="M106.677 654.592C104.838 650.618 100.843 651.874 98.4613 654.059C94.4148 657.887 91.2195 663.04 89.1998 668.993C89.1998 669.131 89.1998 669.217 89.3057 669.251C89.2935 669.386 89.3057 669.522 89.3415 669.649C89.3772 669.776 89.4355 669.89 89.5115 669.982C89.5876 670.074 89.6792 670.142 89.7791 670.179C89.8789 670.217 89.9842 670.223 90.0863 670.198C94.5979 668.563 99.5991 667.548 103.595 664.159C106.029 662.111 108.45 658.343 106.677 654.592ZM96.609 665.896C94.3995 666.774 92.1767 667.496 89.9937 668.477C91.7188 665.489 93.5603 662.618 95.5108 659.874C96.4695 658.57 97.495 657.351 98.5803 656.227C100.287 654.506 106.797 651.22 105.368 658.704C104.614 662.868 99.2683 664.864 96.6355 665.896H96.609Z" fill="#263238"/>
<path d="M75.9032 665.707C80.1238 668.615 85.1647 669.045 89.7821 670.129C90.2584 670.249 90.5495 669.613 90.4966 669.097C90.5171 669.088 90.5359 669.073 90.5515 669.053C90.5671 669.034 90.5791 669.01 90.5867 668.984C90.5943 668.957 90.5973 668.929 90.5955 668.901C90.5936 668.873 90.5869 668.846 90.576 668.821C88.1669 663.145 84.648 658.397 80.3752 655.057C77.8613 653.147 73.7598 652.373 72.2383 656.536C70.7168 660.7 73.4423 664.004 75.9032 665.707ZM73.826 660.545C71.8811 653.267 78.6022 655.797 80.4413 657.276C81.5997 658.273 82.7047 659.371 83.749 660.563C85.8862 663.049 87.9221 665.68 89.8483 668.443C87.5991 667.72 85.3367 667.256 83.0742 666.722C80.3487 665.879 74.9241 664.537 73.826 660.511V660.545Z" fill="#263238"/>
<path d="M95.3915 662.902L38.8041 659.788C38.8041 659.788 54.2575 498.296 54.5353 488.334C55.2762 462.526 68.4407 296.336 68.4407 296.336H137.558C137.558 296.336 133.191 334.722 125.743 359.051C120.729 361.333 115.888 364.213 111.282 367.654C111.282 367.654 104.799 477.581 104.56 491.293C104.031 518.444 95.3915 662.902 95.3915 662.902Z" fill="#37474F"/>
<path d="M93.8832 649.412C85.0716 648.689 87.6119 648.741 78.7738 648.139C74.4606 647.846 46.0677 645.971 42.0059 646.608C41.9132 646.608 41.9132 646.814 42.0059 646.848C45.9751 647.932 74.4342 649.188 78.7473 649.36C87.5854 649.739 85.0584 649.515 93.8964 649.756C93.9315 649.754 93.9645 649.734 93.988 649.7C94.0116 649.666 94.0239 649.621 94.0221 649.576C94.0204 649.53 94.0047 649.487 93.9787 649.456C93.9526 649.426 93.9183 649.41 93.8832 649.412Z" fill="#263238"/>
<path d="M73.5082 306.246C70.9415 348.108 68.3086 389.986 65.3581 431.848C62.4077 473.709 58.9545 515.742 54.7736 557.535C52.4318 580.848 49.7857 613.728 46.994 636.99C46.994 637.145 47.1528 637.214 47.1792 636.99C52.8817 595.697 57.0758 544.355 60.6348 502.632C64.1938 460.908 67.1178 419.064 69.7243 377.22C71.1929 353.545 72.5159 329.853 73.9184 306.178C73.9316 305.954 73.6008 305.954 73.5082 306.246Z" fill="#263238"/>
<path d="M128.204 357.434C122.342 360.225 116.68 363.68 111.282 367.757C111.236 367.785 111.201 367.834 111.184 367.896C111.166 367.957 111.168 368.025 111.189 368.084C111.21 368.143 111.249 368.189 111.296 368.212C111.343 368.235 111.395 368.232 111.441 368.204C117.143 365.021 122.951 361.976 128.508 358.38C128.605 358.328 128.681 358.227 128.721 358.102C128.761 357.976 128.76 357.835 128.72 357.709C128.68 357.584 128.603 357.484 128.506 357.432C128.409 357.381 128.301 357.381 128.204 357.434Z" fill="#263238"/>
<path d="M130.017 306.557C130.017 306.299 129.66 306.247 129.66 306.557C129.66 315.349 129.276 323.091 128.707 331.333C128.443 335.152 126.061 356.246 120.981 354.715C120.134 354.457 119.658 353.356 119.565 351.687C119.575 349.502 119.801 347.327 120.24 345.218C120.795 340.796 121.259 336.374 121.563 331.901C122.154 323.591 122.083 315.225 121.351 306.935C121.341 306.888 121.319 306.847 121.289 306.818C121.259 306.789 121.223 306.773 121.186 306.773C121.148 306.773 121.112 306.789 121.082 306.818C121.052 306.847 121.031 306.888 121.02 306.935C121.171 318.44 120.654 329.943 119.472 341.346C118.837 346.835 116.707 355.111 121.126 355.937C125.545 356.763 128.535 342.964 129.065 339.178C130.469 328.404 130.789 317.438 130.017 306.557Z" fill="#263238"/>
<path d="M121.112 355.248C120.654 356.668 120.274 358.129 119.974 359.619C119.64 360.767 119.478 361.987 119.498 363.215C119.498 363.455 119.749 363.473 119.842 363.318C120.368 362.254 120.769 361.094 121.033 359.877C121.416 358.517 121.826 357.175 122.184 355.799C122.24 355.614 122.237 355.408 122.176 355.226C122.116 355.043 122.002 354.9 121.859 354.827C121.717 354.754 121.559 354.757 121.419 354.836C121.278 354.915 121.168 355.064 121.112 355.248Z" fill="#263238"/>
<path d="M98.0652 313.457C98.0813 312.537 98.0102 311.618 97.8535 310.721C97.8435 310.696 97.8283 310.675 97.8096 310.66C97.791 310.645 97.7695 310.637 97.7477 310.637C97.7258 310.637 97.7044 310.645 97.6857 310.66C97.667 310.675 97.6518 310.696 97.6418 310.721C97.502 311.5 97.4222 312.296 97.4037 313.095C97.4037 314.007 97.2449 314.816 97.1655 315.814C97.0185 317.675 96.7709 319.521 96.4246 321.337C95.7807 324.765 94.4368 327.904 92.5348 330.422C90.638 332.848 88.3894 334.761 85.9195 336.048C83.1858 337.307 80.3983 338.358 77.5709 339.196C77.5429 339.196 77.5159 339.211 77.4961 339.237C77.4762 339.263 77.4651 339.298 77.4651 339.334C77.4651 339.371 77.4762 339.406 77.4961 339.431C77.5159 339.457 77.5429 339.472 77.5709 339.472C80.7015 339.464 83.8013 338.669 86.7001 337.132C89.2697 335.878 91.6089 333.938 93.5668 331.437C95.5213 328.853 96.8941 325.621 97.536 322.094C97.8599 320.275 98.046 318.42 98.0917 316.554C98.1291 315.522 98.1203 314.488 98.0652 313.457Z" fill="#263238"/>
<path d="M165.713 145.219C169.974 151.912 174.604 169.996 174.432 174.934C174.26 179.872 150.855 191.09 147.548 188.406C144.24 185.722 131.221 161.806 131.102 152.945C130.983 144.084 161.294 138.303 165.713 145.219Z" fill="#AD6359"/>
<path d="M130.493 132.934C128.349 130.027 121.416 121.338 118.334 125.261C116.402 127.704 121.059 134.397 123.017 137.046C127.053 142.483 130.175 152.101 131.63 156.798C133.086 161.496 139.9 152.222 139.9 152.222C139.9 152.222 136.089 140.488 130.493 132.934Z" fill="#AD6359"/>
<path d="M136.182 162.045C136.182 162.045 138.577 170.407 142.48 170.217C146.383 170.028 145.391 162.836 145.338 162.32C145.457 162.767 147.812 170.372 151.728 169.667C155.644 168.961 153.977 161.89 153.858 161.442C154.07 161.804 157.087 166.604 159.958 165.176C164.906 162.733 157.483 150.224 158.198 144.736C158.198 144.736 165.501 145.269 165.713 145.218C165.713 145.218 158.833 133.174 153.078 132.279C152.24 132.128 151.388 132.357 150.665 132.927C149.942 133.498 149.392 134.375 149.109 135.41C149.109 135.41 147.217 131.195 144.121 131.625C142.533 131.849 141.395 135.359 141.395 135.359C140.931 134.432 140.278 133.691 139.51 133.217C138.742 132.743 137.888 132.556 137.042 132.675C134.859 133.139 133.774 136.684 133.655 138.06C132.729 148.59 136.182 162.045 136.182 162.045Z" fill="#AD6359"/>
<path d="M133.906 137.099C133.906 137.099 133.813 137.099 133.8 137.099C132.607 145.65 133.442 154.471 136.195 162.391C136.287 162.632 136.631 162.546 136.565 162.253C134.75 154.079 133.854 145.606 133.906 137.099Z" fill="#263238"/>
<path d="M141.381 135.24C141.381 135.136 141.262 135.136 141.249 135.24C140.015 144.682 141.423 154.387 145.218 162.596C145.364 162.889 145.708 162.958 145.562 162.596C143.141 156.884 141.249 143.206 141.381 135.24Z" fill="#263238"/>
<path d="M154.309 161.891C150.684 153.805 149.4 145.03 149.096 135.756C149.096 135.635 148.964 135.653 148.937 135.756C148.143 140.35 148.818 146.217 149.638 150.742C150.341 154.951 151.878 158.848 154.097 162.046C154.163 162.184 154.309 162.063 154.309 161.891Z" fill="#263238"/>
<path d="M136.182 162.046C136.758 163.591 137.44 165.066 138.219 166.451C138.936 167.838 139.922 168.954 141.077 169.686C141.627 169.96 142.235 169.96 142.784 169.686C143.346 169.424 143.847 168.98 144.239 168.395C144.586 167.769 144.829 167.055 144.952 166.299C145.075 165.544 145.076 164.763 144.954 164.008L144.464 160.291L145.92 163.56C146.556 165.022 147.369 166.341 148.328 167.466C148.746 168.019 149.251 168.449 149.808 168.728C150.364 169.007 150.96 169.128 151.556 169.083C152.111 169.04 152.637 168.749 153.047 168.26C153.456 167.772 153.724 167.114 153.805 166.399C153.959 164.791 153.799 163.158 153.342 161.651L152.164 157.452L154.321 160.894C154.921 161.854 155.61 162.715 156.372 163.457C157.079 164.185 157.934 164.628 158.833 164.73C159.238 164.754 159.64 164.632 159.995 164.377C160.35 164.122 160.644 163.744 160.844 163.285C161.156 162.185 161.224 160.993 161.042 159.844C160.663 157.305 160.132 154.808 159.455 152.377C159.137 151.138 158.82 149.882 158.555 148.609C158.23 147.359 158.113 146.033 158.211 144.72C158.229 146.021 158.435 147.305 158.82 148.505C159.164 149.727 159.547 150.931 159.931 152.153C160.752 154.587 161.394 157.116 161.849 159.706C162.122 161.098 162.076 162.563 161.717 163.922C161.459 164.634 161.045 165.232 160.528 165.642C160.01 166.052 159.412 166.255 158.806 166.227C157.688 166.145 156.615 165.63 155.724 164.748C154.862 163.946 154.084 163.003 153.408 161.943L154.387 161.186C154.958 162.95 155.163 164.878 154.983 166.778C154.862 167.835 154.459 168.803 153.845 169.514C153.232 170.176 152.481 170.584 151.688 170.684C150.932 170.744 150.174 170.593 149.466 170.239C148.759 169.886 148.118 169.339 147.587 168.636C146.523 167.396 145.628 165.93 144.941 164.3L145.906 163.853C146.03 164.796 145.995 165.763 145.803 166.687C145.611 167.611 145.267 168.47 144.795 169.204C144.285 169.895 143.647 170.405 142.943 170.684C142.225 170.971 141.451 170.898 140.773 170.477C139.556 169.612 138.552 168.318 137.875 166.743C137.176 165.266 136.608 163.69 136.182 162.046Z" fill="#263238"/>
<path d="M144.782 184.843C144.782 184.843 119.551 168.068 129.434 158.467C132.358 155.611 147.031 148.436 148.195 152.238C149.703 157.142 144.001 161.633 140.085 163.697C140.085 163.697 149.28 167.844 148.976 177.015C148.899 178.695 148.467 180.316 147.727 181.697C146.987 183.079 145.967 184.168 144.782 184.843Z" fill="#AD6359"/>
<path d="M128.654 159.328C129.695 158.025 130.882 156.935 132.173 156.093C133.456 155.204 134.782 154.422 136.142 153.753C138.844 152.373 141.633 151.302 144.478 150.553C145.234 150.347 146.01 150.289 146.78 150.381C147.245 150.418 147.698 150.595 148.103 150.897C148.313 151.055 148.501 151.259 148.659 151.499C148.814 151.738 148.935 152.012 149.016 152.308C149.32 153.368 149.32 154.534 149.016 155.594C148.737 156.561 148.324 157.453 147.799 158.227C146.802 159.694 145.615 160.922 144.292 161.857C143.02 162.804 141.693 163.621 140.323 164.3V163.079C141.36 163.605 142.356 164.256 143.3 165.023C144.249 165.767 145.136 166.638 145.946 167.621C146.745 168.631 147.422 169.791 147.957 171.062C148.499 172.3 148.854 173.66 149.003 175.071C148.722 173.73 148.275 172.457 147.679 171.303C147.071 170.185 146.35 169.178 145.536 168.309C144.719 167.421 143.832 166.649 142.89 166.004C141.974 165.348 141.013 164.806 140.019 164.386L138.788 163.887L139.979 163.165C141.269 162.438 142.52 161.599 143.724 160.653C144.912 159.761 145.984 158.628 146.899 157.298C147.337 156.746 147.659 156.059 147.835 155.3C148.011 154.541 148.035 153.736 147.904 152.962C147.613 151.757 146.039 151.809 144.703 152.067C143.366 152.325 141.951 152.79 140.561 153.237C139.172 153.684 137.809 154.183 136.447 154.751C133.682 155.742 131.053 157.286 128.654 159.328Z" fill="#263238"/>
<path d="M115.741 208.587C138.048 244.392 170.477 267.585 178.481 260.032C186.486 252.478 159.508 212.94 159.045 212.355C157.471 210.393 145.537 202.324 123.865 190.452C102.603 178.804 105.779 192.603 115.741 208.587Z" fill="#AD6359"/>
<path d="M149.016 204.441L132.213 233.174C132.213 233.174 118.109 214.248 110.647 201.722C103.185 189.197 103.926 179.458 120.623 187.545C130.397 192.251 139.888 197.898 149.016 204.441Z" fill="url(#paint9_linear_96_145)"/>
<path d="M130.612 226.586C132.663 222.663 134.806 218.809 137.003 215.041C138.101 213.183 139.159 211.29 140.284 209.449C141.408 207.608 142.692 205.767 143.843 203.874C143.922 203.737 144.081 203.874 144.002 204.012C142.943 205.905 141.991 207.883 140.932 209.776C139.874 211.669 138.709 213.63 137.585 215.557C135.371 219.342 133.091 223.059 130.744 226.706C130.678 226.81 130.493 226.706 130.612 226.586Z" fill="#263238"/>
<path d="M140.257 219.376L132.213 233.14C132.213 233.14 118.109 214.214 110.647 201.688L109.933 200.467L109.628 199.899L109.165 199.022C108.768 198.265 108.411 197.525 108.094 196.802C107.975 196.544 107.869 196.286 107.763 196.028C107.211 194.722 106.767 193.343 106.44 191.916C106.342 191.475 106.267 191.027 106.215 190.574C106.215 190.35 106.215 190.143 106.215 189.937C113.545 196.544 130.744 211.014 140.257 219.376Z" fill="#263238"/>
<path d="M140.933 314.093C140.933 314.093 64.367 315.814 63.9171 315.194C62.7264 313.474 78.193 210.945 94.1888 189.817C99.8383 182.349 111.495 185.395 113.439 186.616C117.925 189.438 122.145 195.529 125.678 206.816C132.743 229.39 141.899 312.476 140.933 314.093Z" fill="url(#paint10_linear_96_145)"/>
<path opacity="0.1" d="M117.263 189.987H94.0693L94.1884 189.815C94.7281 189.105 95.3272 188.476 95.9745 187.939H115.225C115.946 188.549 116.627 189.234 117.263 189.987ZM119.816 193.428H91.8863C91.5158 194.065 91.1586 194.753 90.8014 195.476H121.033C120.65 194.753 120.253 194.116 119.909 193.428H119.816ZM122.7 198.917H89.2004C88.9094 199.588 88.6183 200.276 88.3405 200.981H123.6C123.322 200.276 123.031 199.57 122.727 198.917H122.7ZM124.857 204.422H87.0042L86.25 206.47H125.558C125.347 205.764 125.122 205.076 124.883 204.44L124.857 204.422ZM126.537 209.911H85.0857L84.411 211.959H127.08C126.908 211.322 126.736 210.565 126.524 209.911H126.537ZM127.86 215.4H83.3393C83.1408 216.088 82.9291 216.759 82.7174 217.464H128.323L127.86 215.4ZM128.998 220.888H81.7384C81.5531 221.576 81.3547 222.247 81.1695 222.953H129.422C129.254 222.253 129.122 221.565 129.025 220.888H128.998ZM130.03 226.394H80.2168C80.0316 227.065 79.8596 227.753 79.6876 228.442H130.387L130.03 226.394ZM130.983 231.883H78.8938C78.7218 232.554 78.563 233.242 78.391 233.93H131.419C131.234 233.242 131.128 232.554 131.009 231.969L130.983 231.883ZM131.882 237.371H77.5707C77.3987 238.042 77.2399 238.73 77.0812 239.436H132.306C132.134 238.748 132.028 238.059 131.909 237.371H131.882ZM132.742 242.86H76.2477C76.0889 243.548 75.9301 244.236 75.7846 244.925H133.139L132.742 242.86ZM133.563 248.366H75.004C74.8452 249.054 74.6997 249.725 74.5541 250.413H133.88C133.788 249.725 133.695 249.037 133.589 248.366H133.563ZM134.343 253.854H73.8264C73.6809 254.542 73.5354 255.231 73.4031 255.902H134.661C134.568 255.213 134.462 254.542 134.37 253.854H134.343ZM135.098 259.343H72.7018C72.5563 260.031 72.424 260.719 72.2917 261.408H135.402C135.322 260.719 135.23 260.031 135.124 259.343H135.098ZM135.852 264.849H71.6037C71.4846 265.537 71.3523 266.208 71.22 266.896H136.13C136.05 266.225 135.958 265.537 135.878 264.849H135.852ZM136.54 270.337H70.5585C70.4394 271.025 70.3071 271.714 70.188 272.385H136.831C136.751 271.714 136.659 271.025 136.566 270.337H136.54ZM137.228 275.826H69.553C69.4339 276.531 69.3148 277.219 69.1825 277.891H137.506C137.426 277.202 137.347 276.531 137.254 275.826H137.228ZM137.902 281.314H68.5871C68.468 282.003 68.349 282.708 68.2299 283.379H138.154C138.074 282.708 137.995 282.02 137.929 281.314H137.902ZM138.524 286.82H67.6477C67.5419 287.508 67.4228 288.197 67.317 288.868H138.762L138.524 286.82ZM139.133 292.309H66.7481C66.6422 293.014 66.5364 293.685 66.4305 294.356H139.384C139.305 293.685 139.239 292.997 139.159 292.309H139.133ZM139.715 297.797H65.9145C65.791 298.509 65.6852 299.197 65.597 299.862H139.953C139.887 299.191 139.755 298.503 139.755 297.797H139.715ZM140.244 303.286H65.1075C65.0016 304.009 64.909 304.697 64.8164 305.351H140.469C140.416 304.697 140.35 304.009 140.271 303.286H140.244ZM140.734 308.792H64.3401C64.2475 309.532 64.1813 310.22 64.1019 310.839H140.84C140.866 310.237 140.813 309.549 140.76 308.792H140.734ZM63.8373 314.28C63.7785 314.58 63.7785 314.893 63.8373 315.192C64.1945 315.657 111.679 314.711 131.909 314.28H63.8373Z" fill="#030402"/>
<path d="M98.5543 202.239C93.3944 211.444 66.9331 249.486 65.9541 253.013C64.975 256.54 71.1008 264.334 70.9949 265.797C70.598 271.75 60.7147 311.357 56.7588 307.331C51.5459 302.032 29.4772 264.076 32.5996 247.645C35.722 231.213 87.2554 191.761 95.4319 188.337C103.608 184.913 103.648 193.154 98.5543 202.239Z" fill="#AD6359"/>
<path d="M77.7685 236.872L62.7385 209.429C62.7385 209.429 79.5547 195.08 90.8007 188.955C102.047 182.83 107.59 186.236 97.3102 205.145C91.3008 216.23 84.7747 226.826 77.7685 236.872Z" fill="url(#paint11_linear_96_145)"/>
<path d="M67.1847 207.641C69.5662 211.231 71.8816 214.901 74.1308 218.652C75.2422 220.493 76.3668 222.317 77.4385 224.192C78.5101 226.068 79.5686 228.167 80.6932 230.094C80.7726 230.232 80.6138 230.404 80.5344 230.266C79.3966 228.545 78.1794 226.825 77.0415 224.932C75.9037 223.04 74.7394 221.147 73.6016 219.254C71.3524 215.504 69.1693 211.667 67.0656 207.778C66.9862 207.675 67.1186 207.537 67.1847 207.641Z" fill="#263238"/>
<path d="M77.7429 237.011C80.0451 233.037 82.7574 229.492 85.2447 225.724C87.7321 221.956 90.2062 218.068 92.5745 214.145C92.5745 214.145 92.7465 214.145 92.6936 214.248C91.5954 216.296 90.5237 218.36 89.3727 220.356C88.8038 221.337 88.2084 222.3 87.5998 223.264L88.4862 222.318C89.3931 221.431 90.3337 220.604 91.3043 219.84C91.3043 219.84 91.4102 219.84 91.3043 219.943C90.4624 220.956 89.579 221.91 88.6582 222.799C87.9967 223.453 87.3352 224.055 86.6339 224.658L85.5755 226.378C83.2661 230.255 80.6934 233.854 77.8885 237.132C77.8091 237.287 77.6636 237.132 77.7429 237.011Z" fill="#263238"/>
<path d="M69.6986 322.368C73.2311 319.254 68.3755 315.606 68.3755 315.606C68.3755 315.606 76.3139 318.669 78.96 313.628C81.6061 308.586 75.573 304.629 75.1496 304.319C75.573 304.491 82.9292 307.038 85.2313 301.618C87.5335 296.198 81.0769 293.17 80.6535 293.015C81.0901 293.015 86.819 292.688 87.851 288.043C89.6107 280.077 73.1518 279.148 69.6059 274.278C69.6059 274.278 71.1936 263.749 71.3259 263.456C70.2614 265.819 68.6094 267.64 66.6423 268.618C63.0832 269.925 59.8814 270.682 58.4393 272.902C57.7664 273.873 57.3517 275.1 57.2564 276.401C57.1611 277.703 57.3903 279.009 57.9101 280.128C57.9101 280.128 53.4116 279.457 51.4932 283.655C50.5141 285.806 52.3003 289.781 52.3003 289.781C51.2823 289.686 50.2639 289.957 49.3563 290.564C48.4487 291.171 47.6867 292.09 47.1536 293.222C45.9231 296.319 47.9077 299.812 47.9077 299.812C47.9077 299.812 44.309 301.532 43.8459 305.249C42.9594 312.699 62.1306 329.01 69.6986 322.368Z" fill="#AD6359"/>
<path d="M48.2247 300.448C48.2247 300.448 48.0791 300.448 48.1321 300.568C53.6163 308.251 60.7693 313.58 68.6396 315.847C68.8909 315.847 69.0762 315.399 68.8116 315.262C61.4336 311.647 54.4988 306.657 48.2247 300.448Z" fill="#263238"/>
<path d="M52.2471 289.712C52.2384 289.703 52.2285 289.696 52.2178 289.692C52.2071 289.688 52.1959 289.687 52.1849 289.688C52.1738 289.69 52.1631 289.694 52.1534 289.701C52.1436 289.708 52.135 289.718 52.1281 289.729C52.1211 289.74 52.1159 289.753 52.1128 289.767C52.1097 289.781 52.1088 289.795 52.11 289.81C52.1112 289.824 52.1146 289.838 52.12 289.851C52.1254 289.863 52.1326 289.875 52.1413 289.884C58.2551 298.267 66.4715 303.533 75.3081 304.732C75.6124 304.732 75.9168 304.388 75.5595 304.319C69.6322 303.149 58.0686 295.63 52.2471 289.712Z" fill="#263238"/>
<path d="M81.3675 292.758C72.7412 291.485 65.2923 286.736 58.1875 280.438C58.0948 280.438 58.0155 280.525 58.0684 280.628C60.8997 284.946 65.7554 288.353 69.7113 290.59C73.344 292.753 77.3498 293.637 81.3278 293.153C81.5395 293.136 81.5395 292.792 81.3675 292.758Z" fill="#263238"/>
<path d="M47.7352 299.811C47.0166 298.87 46.5125 297.689 46.279 296.398C46.0454 295.107 46.0915 293.757 46.4122 292.499C46.8266 291.314 47.5543 290.361 48.4629 289.815C49.546 289.327 50.7041 289.192 51.8368 289.419C51.2052 288.261 50.8583 286.882 50.8418 285.463C50.8252 284.044 51.1399 282.652 51.7441 281.47C52.4217 280.459 53.3657 279.815 54.3903 279.663C55.5596 279.516 56.7389 279.574 57.8964 279.835C57.4142 279.097 57.0711 278.223 56.8942 277.282C56.7174 276.341 56.7117 275.36 56.8776 274.416C57.0966 273.39 57.4982 272.446 58.0498 271.66C58.6015 270.874 59.2877 270.268 60.053 269.89C61.8532 269.043 63.722 268.466 65.6231 268.17C66.5989 267.98 67.5538 267.639 68.4677 267.155C69.4524 266.569 70.278 265.609 70.8359 264.402C70.9418 264.195 70.9418 264.402 70.8359 264.591C70.4654 265.411 69.9913 266.144 69.4335 266.759C68.8543 267.415 68.2088 267.965 67.5151 268.394C65.7928 269.238 64.0236 269.911 62.2228 270.407C60.6442 270.953 59.2488 272.163 58.2536 273.848C57.7988 274.739 57.5431 275.777 57.5151 276.847C57.4871 277.916 57.6878 278.974 58.0948 279.904C58.0948 279.904 58.0948 280.128 57.9758 280.111C56.9194 280.105 55.8663 280.266 54.8401 280.592C53.9889 280.857 53.2216 281.458 52.6438 282.313C52.1085 283.403 51.8024 284.657 51.756 285.949C51.7095 287.241 51.9244 288.527 52.3792 289.677C51.2382 289.776 50.1212 290.15 49.0848 290.778C48.4119 291.316 47.8704 292.092 47.5236 293.015C47.1273 294.078 46.9657 295.263 47.0568 296.439C47.1479 297.615 47.4881 298.734 48.0396 299.673C48.0446 299.702 48.0446 299.731 48.0396 299.759C48.0396 299.759 46.8885 300.379 46.8356 300.379C47.1262 300.166 47.4267 299.976 47.7352 299.811Z" fill="#263238"/>
<path d="M113.412 201.878C109.205 203.891 100.975 196.441 97.3896 189.937C97.1515 189.49 96.9133 170.133 96.5693 166.314C96.49 165.522 115.582 169.273 115.582 169.273C114.971 174.222 114.829 179.249 115.158 184.242C115.211 184.793 117.474 199.951 113.412 201.878Z" fill="#AD6359"/>
<path d="M115.582 169.271C115.582 169.271 115.37 170.871 115.198 173.246C109.906 181.694 101.412 182.588 97.0986 182.399C96.953 176.394 96.781 168.635 96.5693 166.312C96.49 165.537 115.582 169.271 115.582 169.271Z" fill="#263238"/>
<path d="M96.6497 125.071C96.6497 125.071 90.5636 128.134 89.3199 136.048C88.0763 143.963 89.3199 152.359 89.8227 152.79C90.3255 153.22 96.6497 125.071 96.6497 125.071Z" fill="#263238"/>
<path d="M121.231 135.291C122.793 144.014 118.056 168.429 113.081 173.522C105.884 180.92 94.7172 180.714 90.0336 169.651C85.5087 158.931 92.124 127.273 97.6147 122.714C105.685 116.021 118.89 122.387 121.231 135.291Z" fill="#AD6359"/>
<path d="M102.352 149.004C102.352 149.004 102.444 149.108 102.431 149.176C102.166 150.897 102.074 152.841 103.185 153.667C103.185 153.667 103.185 153.77 103.185 153.753C101.756 153.168 101.889 150.536 102.352 149.004Z" fill="#263238"/>
<path d="M103.741 147.491C105.871 147.749 105.302 153.254 103.344 153.014C101.386 152.773 101.968 147.267 103.741 147.491Z" fill="#263238"/>
<path d="M94.9686 147.3C94.9686 147.3 94.8627 147.3 94.8495 147.438C94.7304 149.159 94.3732 151.068 93.1295 151.447V151.55C94.6113 151.516 95.0612 148.935 94.9686 147.3Z" fill="#263238"/>
<path d="M93.9766 145.324C91.8862 144.773 91.1849 150.244 93.1298 150.761C95.0747 151.277 95.723 145.788 93.9766 145.324Z" fill="#263238"/>
<path d="M102.061 163.233C101.717 163.595 101.36 164.111 100.883 164.111C100.394 164.045 99.9204 163.846 99.494 163.526C99.6562 163.885 99.8914 164.18 100.174 164.377C100.456 164.575 100.775 164.667 101.095 164.644C101.374 164.599 101.634 164.44 101.839 164.189C102.044 163.939 102.182 163.61 102.233 163.251C102.233 163.251 102.114 163.147 102.061 163.233Z" fill="#263238"/>
<path d="M95.9343 155.388C95.9343 155.388 95.3786 157.866 95.2463 159.07C97.045 159.412 98.7963 160.09 100.446 161.083C100.83 161.324 100.883 160.894 100.446 160.447C99.2149 159.146 97.7126 158.355 96.1327 158.175C96.1327 157.831 97.0456 154.373 96.9001 154.321C96.1855 154.268 95.4687 154.343 94.77 154.545C95.802 149.383 97.4161 144.359 98.4481 139.06C98.4481 138.871 98.2761 138.768 98.2099 138.922C96.3009 144.177 94.7941 149.664 93.7115 155.302C93.5395 156.059 95.5374 155.526 95.9343 155.388Z" fill="#263238"/>
<path d="M105.355 145.614C104.853 145.201 104.456 144.702 104.032 144.237C103.609 143.773 103.053 143.342 102.855 142.517C102.812 142.268 102.837 142.008 102.923 141.78C103.01 141.551 103.154 141.368 103.331 141.261C103.703 141.102 104.102 141.078 104.484 141.19C104.866 141.302 105.217 141.546 105.501 141.897C106.169 142.481 106.642 143.372 106.824 144.392C106.859 144.632 106.838 144.879 106.764 145.103C106.689 145.327 106.565 145.517 106.407 145.648C106.249 145.78 106.065 145.847 105.877 145.84C105.69 145.834 105.508 145.755 105.355 145.614Z" fill="#263238"/>
<path d="M93.0505 139.267C93.6326 139.147 94.1619 138.94 94.7308 138.751C95.3436 138.683 95.9212 138.35 96.3714 137.805C96.4894 137.602 96.5533 137.354 96.5533 137.099C96.5533 136.845 96.4894 136.597 96.3714 136.394C96.0814 136.051 95.7263 135.814 95.3426 135.708C94.959 135.602 94.5606 135.631 94.1883 135.792C93.3932 135.965 92.6762 136.517 92.1773 137.34C92.0766 137.534 92.0202 137.761 92.0147 137.995C92.0092 138.229 92.0548 138.46 92.1462 138.662C92.2376 138.864 92.371 139.028 92.5311 139.135C92.6911 139.242 92.8712 139.288 93.0505 139.267Z" fill="#263238"/>
<path d="M118.109 156.145C114.219 155.646 116.336 133.33 116.336 133.33C113.935 134.394 111.423 134.974 108.888 135.051C106.325 134.934 103.782 134.437 101.306 133.571C100.777 133.313 107.803 130.732 107.803 130.732C107.803 130.732 90.5234 132.694 89.9412 128.461C89.7295 126.999 92.9446 113.682 107.287 114.525C117.871 115.144 122.806 129.528 122.806 129.528C122.806 129.528 127.953 136.978 127.066 140.35C125.558 146.269 122.237 156.678 118.109 156.145Z" fill="#263238"/>
<path d="M115.754 156.265C115.754 156.265 120.583 148.764 123.243 151.104C125.902 153.444 121.92 164.61 118.506 165.832C118.081 166.024 117.63 166.103 117.181 166.063C116.732 166.023 116.293 165.866 115.892 165.601C115.49 165.336 115.134 164.969 114.844 164.52C114.555 164.072 114.338 163.553 114.206 162.993L115.754 156.265Z" fill="#AD6359"/>
<path d="M180.201 258.742C190.944 247.954 180.677 193.188 174.433 173.023C172.594 167.087 143.42 178.185 144.783 184.844C152.576 222.507 168.439 270.562 180.201 258.742Z" fill="#AD6359"/>
<path d="M149.611 205.508L152.826 215.831C153.924 219.272 154.996 222.713 156.186 226.155C157.377 229.596 158.528 232.916 159.746 236.271C160.963 239.627 162.312 242.913 163.635 246.216C161.961 243.185 160.437 240.018 159.071 236.736C157.748 233.45 156.425 230.077 155.274 226.671C154.122 223.264 153.064 219.788 152.111 216.244C151.159 212.7 150.339 209.138 149.611 205.508Z" fill="#263238"/>
<path d="M147.694 96.6479C147.822 98.5829 147.505 100.524 146.785 102.225C146.065 103.927 144.973 105.312 143.648 106.207C142.322 107.102 140.823 107.466 139.338 107.253C137.854 107.04 136.451 106.259 135.308 105.01C134.164 103.761 133.331 102.099 132.914 100.234C132.496 98.3693 132.513 96.3855 132.962 94.5333C133.411 92.681 134.272 91.0434 135.437 89.8273C136.601 88.6113 138.017 87.8713 139.504 87.701C140.494 87.5876 141.491 87.7293 142.439 88.1178C143.386 88.5063 144.266 89.1341 145.026 89.9651C145.787 90.7962 146.414 91.8142 146.872 92.961C147.33 94.1077 147.609 95.3606 147.694 96.6479Z" fill="white"/>
<path d="M147.693 96.6487C147.856 99.2832 147.237 101.899 145.962 103.957C144.687 106.015 142.853 107.359 140.839 107.712C139.742 107.998 138.611 107.98 137.52 107.658C136.429 107.336 135.403 106.718 134.508 105.844C133.614 104.97 132.872 103.86 132.33 102.587C131.789 101.314 131.461 99.906 131.367 98.4563C131.273 97.0065 131.416 95.5474 131.786 94.1745C132.156 92.8016 132.745 91.546 133.515 90.4899C134.284 89.4339 135.217 88.6012 136.251 88.0466C137.285 87.492 138.398 87.2279 139.516 87.2717C141.542 87.1816 143.517 88.1028 145.038 89.8463C146.558 91.5898 147.508 94.0236 147.693 96.6487ZM147.693 96.6487C147.608 95.383 147.327 94.1528 146.867 93.032C146.407 91.9112 145.777 90.9231 145.016 90.1273C144.254 89.3315 143.377 88.7445 142.436 88.4016C141.495 88.0586 140.511 87.9669 139.542 88.1319C137.69 88.4414 136.002 89.6697 134.83 91.5602C133.659 93.4506 133.094 95.8569 133.254 98.276C133.415 100.695 134.288 102.94 135.692 104.541C137.096 106.143 138.921 106.977 140.786 106.869C141.763 106.816 142.722 106.505 143.604 105.957C144.486 105.409 145.274 104.633 145.919 103.678C146.564 102.723 147.054 101.608 147.359 100.4C147.664 99.1915 147.777 97.9155 147.693 96.6487Z" fill="#263238"/>
<path d="M131.261 114.765C131.331 115.843 131.154 116.924 130.752 117.872C130.35 118.819 129.741 119.59 129.002 120.087C128.263 120.584 127.427 120.785 126.6 120.665C125.774 120.544 124.993 120.108 124.357 119.41C123.721 118.713 123.258 117.786 123.027 116.747C122.796 115.707 122.807 114.602 123.059 113.571C123.31 112.54 123.792 111.629 124.441 110.954C125.091 110.278 125.881 109.868 126.71 109.776C127.261 109.712 127.816 109.791 128.344 110.008C128.871 110.224 129.361 110.575 129.784 111.038C130.207 111.502 130.555 112.07 130.809 112.71C131.062 113.35 131.216 114.048 131.261 114.765Z" fill="white"/>
<path d="M131.261 114.766C131.335 115.946 131.134 117.129 130.685 118.159C130.235 119.19 129.558 120.02 128.74 120.543C127.923 121.066 127.003 121.256 126.101 121.09C125.199 120.924 124.356 120.408 123.683 119.611C123.009 118.813 122.536 117.77 122.324 116.618C122.112 115.466 122.172 114.257 122.496 113.15C122.819 112.043 123.392 111.088 124.139 110.409C124.886 109.731 125.772 109.36 126.683 109.346C127.829 109.34 128.936 109.893 129.783 110.897C130.631 111.9 131.158 113.281 131.261 114.766ZM131.261 114.766C131.217 114.067 131.062 113.389 130.806 112.773C130.549 112.157 130.197 111.617 129.771 111.188C129.346 110.76 128.856 110.451 128.333 110.281C127.811 110.112 127.267 110.087 126.736 110.206C125.991 110.37 125.299 110.813 124.744 111.48C124.189 112.147 123.796 113.01 123.612 113.963C123.428 114.916 123.462 115.918 123.709 116.847C123.956 117.775 124.405 118.59 125.002 119.192C125.6 119.794 126.319 120.157 127.072 120.236C127.825 120.315 128.58 120.107 129.244 119.637C129.907 119.168 130.452 118.457 130.81 117.592C131.168 116.727 131.325 115.745 131.261 114.766Z" fill="#263238"/>
<path d="M204.135 50.9491C204.837 58.5024 203.206 66.1095 199.599 72.1001C195.992 78.0906 190.705 81.9749 184.898 82.9C181.076 83.5187 177.196 82.8123 173.651 80.8525C171.923 83.7954 169.695 86.1802 167.142 87.8217C164.59 89.4632 161.78 90.3172 158.932 90.3172C156.085 90.3172 153.275 89.4632 150.722 87.8217C148.17 86.1802 145.942 83.7954 144.213 80.8525C143.4 81.1651 142.568 81.3895 141.726 81.5235C138.845 81.9809 135.924 81.3419 133.317 79.6838C130.709 78.0258 128.528 75.42 127.036 72.1821C125.545 68.9442 124.808 65.2133 124.914 61.4416C125.02 57.6698 125.966 54.0191 127.635 50.9319C124.384 45.5526 122.718 38.8397 122.936 32.0036C123.155 25.1674 125.245 18.6579 128.829 13.6486C132.413 8.63933 137.255 5.4599 142.482 4.68358C147.709 3.90726 152.978 5.58514 157.338 9.41468C159.383 6.10794 162.064 3.56241 165.108 2.03574C168.153 0.509074 171.454 0.0554452 174.676 0.720766C177.899 1.38609 180.929 3.14674 183.461 5.82454C185.992 8.50234 187.935 12.0022 189.092 15.97C189.865 15.6319 190.663 15.4012 191.473 15.2818C193.92 14.9005 196.397 15.4979 198.576 16.9945C200.755 18.4911 202.531 20.8157 203.668 23.6585C204.804 26.5013 205.248 29.7271 204.939 32.906C204.63 36.085 203.583 39.0659 201.939 41.4516C203.095 44.4244 203.839 47.6397 204.135 50.9491Z" fill="white"/>
<path d="M204.135 50.9497C204.823 58.5004 203.214 66.1016 199.65 72.1298C198.456 74.0934 197.078 75.8562 195.549 77.3776C192.452 80.4256 188.797 82.3714 184.946 83.0231C181.095 83.6748 177.179 83.0099 173.586 81.094H173.797C172.059 84.0931 169.811 86.5294 167.229 88.2127C164.647 89.8959 161.801 90.7807 158.913 90.7979C156.011 90.8113 153.146 89.9578 150.538 88.3031C147.931 86.6196 145.648 84.1973 143.857 81.2144L144.333 81.4209C141.254 82.6297 137.964 82.5696 134.913 81.2488C131.847 79.9333 129.177 77.3997 127.279 74.0052C126.349 72.2989 125.614 70.4271 125.095 68.4478C124.6 66.457 124.337 64.3806 124.315 62.2882C124.286 58.0708 125.266 53.9461 127.12 50.4851V51.4487C123.736 45.9389 122.01 39.0156 122.264 31.9719C122.408 26.725 123.635 21.6251 125.816 17.2073C127.997 12.7895 131.053 9.21674 134.662 6.86386C138.271 4.51098 142.301 3.46476 146.328 3.83497C150.355 4.20519 154.232 5.97819 157.55 8.96794L156.968 9.07118C159.069 5.70774 161.817 3.1274 164.934 1.59226C168.05 0.0571176 171.423 -0.378138 174.71 0.33071C177.978 1.03574 181.044 2.85003 183.6 5.5902C186.155 8.33036 188.109 11.8993 189.264 15.9362L189.092 15.8158C191.677 14.7224 194.468 14.7708 197.03 15.9534C198.914 16.8295 200.602 18.2964 201.946 20.2241C203.289 22.1518 204.246 24.4808 204.731 27.0045C205.217 29.5282 205.216 32.1688 204.729 34.692C204.242 37.2152 203.284 39.5431 201.939 41.4694C203.097 44.4355 203.841 47.6454 204.135 50.9497ZM204.135 50.9497C203.823 47.6413 203.062 44.4314 201.886 41.4694C203.684 38.9025 204.773 35.6299 204.982 32.1683C205.19 28.7067 204.506 25.2534 203.037 22.3539C201.585 19.4624 199.435 17.28 196.925 16.1496C194.415 15.0192 191.688 15.0046 189.171 16.1083H189.039V15.9362C187.865 12.0299 185.927 8.59003 183.416 5.95695C180.904 3.32846 177.899 1.61801 174.71 1.00173C171.536 0.385222 168.293 0.859765 165.303 2.37819C162.332 3.91229 159.726 6.44098 157.749 9.70778L157.497 10.1207L157.153 9.81102C152.895 6.11989 147.765 4.52007 142.682 5.29785C137.599 6.07563 132.895 9.18024 129.411 14.0561C125.927 18.932 123.892 25.2608 123.668 31.9101C123.445 38.5593 125.048 45.095 128.191 50.3475L128.483 50.8293L128.205 51.3282C126.476 54.5014 125.551 58.2963 125.559 62.185C125.58 64.1174 125.816 66.0357 126.26 67.88C126.724 69.7207 127.397 71.4606 128.258 73.0417C130.008 76.226 132.476 78.626 135.319 79.911C138.162 81.1959 141.242 81.3027 144.134 80.2165L144.439 80.1132L144.611 80.4229C146.294 83.3059 148.456 85.6583 150.935 87.3052C154.709 89.7917 159.031 90.4922 163.16 89.2867C167.288 88.0811 170.965 85.0446 173.559 80.6982L173.652 80.5434H173.784C177.31 82.5266 181.176 83.2626 184.991 82.6769C188.828 82.0636 192.476 80.16 195.575 77.1539C197.102 75.6615 198.48 73.9276 199.677 71.9922C200.852 70.0123 201.834 67.8509 202.601 65.5573C204.069 60.9406 204.598 55.9095 204.135 50.9497Z" fill="#263238"/>
<path d="M166.414 51.8429C166.386 49.7489 166.674 47.6681 167.261 45.7177C167.998 43.671 169.242 42.0049 170.793 40.9862C171.336 40.556 171.984 40.0915 172.778 39.5581C173.582 39.0078 174.347 38.3689 175.067 37.6483C175.807 36.9166 176.45 36.0333 176.972 35.033C177.494 34.0153 177.767 32.8153 177.753 31.5919C177.766 30.6988 177.617 29.8143 177.316 29.0111C177.045 28.2919 176.662 27.6534 176.192 27.1357C175.714 26.6177 175.16 26.2313 174.564 26.0001C173.953 25.7418 173.315 25.6083 172.672 25.6044C171.937 25.5866 171.207 25.7682 170.529 26.1377C169.908 26.4699 169.325 26.9098 168.796 27.4454C168.301 27.9834 167.857 28.5956 167.473 29.2691C167.093 29.876 166.744 30.5139 166.427 31.179L161.77 26.998C162.222 25.6009 162.848 24.3103 163.622 23.1784C164.368 22.0622 165.243 21.1044 166.216 20.3394C167.208 19.5786 168.277 18.9996 169.391 18.6189C170.544 18.2236 171.731 18.0269 172.924 18.0339C174.267 18.0429 175.604 18.2978 176.893 18.7909C178.191 19.2945 179.4 20.1246 180.452 21.2341C181.535 22.3975 182.411 23.8535 183.019 25.5011C183.704 27.4539 184.038 29.5837 183.998 31.7296C184.014 33.0554 183.88 34.3771 183.601 35.6524C183.347 36.7583 182.958 37.804 182.45 38.7495C181.949 39.6819 181.357 40.5263 180.69 41.2615C179.965 42.0516 179.195 42.7705 178.388 43.4122L176.244 45.0123C175.558 45.509 174.907 46.0849 174.3 46.7329C173.713 47.3274 173.216 48.0563 172.831 48.8836C172.433 49.7817 172.236 50.8068 172.262 51.8429H166.414ZM166.52 68.0507V58.4499H172.447V68.0507H166.52Z" fill="url(#paint12_linear_96_145)"/>
<path d="M153.171 33.8824C153.537 35.9199 153.582 38.0329 153.303 40.0936C152.925 42.2846 151.994 44.2476 150.657 45.6683C150.194 46.2189 149.625 46.8555 148.937 47.5953C148.237 48.3498 147.586 49.1786 146.992 50.0729C146.386 50.9845 145.899 52.019 145.55 53.1355C145.2 54.2725 145.126 55.5212 145.338 56.7143C145.458 57.5863 145.74 58.4071 146.158 59.1059C146.538 59.7432 147.016 60.2706 147.561 60.6544C148.11 61.037 148.713 61.2711 149.334 61.3426C149.975 61.4184 150.621 61.372 151.252 61.205C151.972 61.0255 152.657 60.6566 153.263 60.121C153.817 59.6341 154.319 59.0558 154.758 58.4004C155.182 57.7433 155.542 57.021 155.83 56.2497C156.1 55.5518 156.339 54.8336 156.544 54.099L161.757 56.9552C161.544 58.4448 161.137 59.8762 160.553 61.1878C159.987 62.4691 159.273 63.6297 158.436 64.6289C157.587 65.6429 156.634 66.4998 155.605 67.1753C154.541 67.8708 153.411 68.3799 152.244 68.6894C150.915 69.0571 149.55 69.1673 148.196 69.0163C146.847 68.8849 145.533 68.3991 144.332 67.5883C143.094 66.748 142.007 65.575 141.144 64.1471C139.582 61.3013 138.812 57.8483 138.961 54.3571C139.034 53.2131 139.249 52.0919 139.596 51.0364C139.936 49.9898 140.381 49.0062 140.919 48.1115C141.502 47.1408 142.139 46.2265 142.824 45.3758C143.433 44.6531 144.055 43.9305 144.663 43.2423C145.251 42.5597 145.788 41.8049 146.264 40.9883C146.729 40.2432 147.092 39.3992 147.336 38.4935C147.577 37.5072 147.605 36.4534 147.415 35.4481L153.171 33.8824ZM150.524 18.0532L152.046 27.4475L146.238 29.0304L144.716 19.6361L150.524 18.0532Z" fill="url(#paint13_linear_96_145)"/>
<defs>
<linearGradient id="paint0_linear_96_145" x1="515.134" y1="429.34" x2="515.134" y2="501.705" gradientUnits="userSpaceOnUse">
<stop stop-color="#465C8C"/>
<stop offset="1" stop-color="#DFA9E7"/>
</linearGradient>
<linearGradient id="paint1_linear_96_145" x1="435.135" y1="487.137" x2="435.135" y2="548.557" gradientUnits="userSpaceOnUse">
<stop stop-color="#465C8C"/>
<stop offset="1" stop-color="#DFA9E7"/>
</linearGradient>
<linearGradient id="paint2_linear_96_145" x1="432.159" y1="408.559" x2="432.159" y2="504.476" gradientUnits="userSpaceOnUse">
<stop stop-color="#465C8C"/>
<stop offset="1" stop-color="#DFA9E7"/>
</linearGradient>
<linearGradient id="paint3_linear_96_145" x1="488.19" y1="397.953" x2="488.19" y2="440.763" gradientUnits="userSpaceOnUse">
<stop stop-color="#465C8C"/>
<stop offset="1" stop-color="#DFA9E7"/>
</linearGradient>
<linearGradient id="paint4_linear_96_145" x1="488.543" y1="468.144" x2="488.543" y2="553.323" gradientUnits="userSpaceOnUse">
<stop stop-color="#465C8C"/>
<stop offset="1" stop-color="#DFA9E7"/>
</linearGradient>
<linearGradient id="paint5_linear_96_145" x1="310.563" y1="87.3228" x2="310.563" y2="693.632" gradientUnits="userSpaceOnUse">
<stop stop-color="#465C8C"/>
<stop offset="1" stop-color="#DFA9E7"/>
</linearGradient>
<linearGradient id="paint6_linear_96_145" x1="300.832" y1="87.3228" x2="300.832" y2="693.633" gradientUnits="userSpaceOnUse">
<stop stop-color="#465C8C"/>
<stop offset="1" stop-color="#DFA9E7"/>
</linearGradient>
<linearGradient id="paint7_linear_96_145" x1="149.573" y1="664.967" x2="149.573" y2="703.364" gradientUnits="userSpaceOnUse">
<stop stop-color="#465C8C"/>
<stop offset="1" stop-color="#DFA9E7"/>
</linearGradient>
<linearGradient id="paint8_linear_96_145" x1="84.6755" y1="663.177" x2="84.6755" y2="709.234" gradientUnits="userSpaceOnUse">
<stop stop-color="#465C8C"/>
<stop offset="1" stop-color="#DFA9E7"/>
</linearGradient>
<linearGradient id="paint9_linear_96_145" x1="127.567" y1="184.586" x2="127.567" y2="233.174" gradientUnits="userSpaceOnUse">
<stop stop-color="#465C8C"/>
<stop offset="1" stop-color="#DFA9E7"/>
</linearGradient>
<linearGradient id="paint10_linear_96_145" x1="102.428" y1="184.958" x2="102.428" y2="315.329" gradientUnits="userSpaceOnUse">
<stop stop-color="#465C8C"/>
<stop offset="1" stop-color="#DFA9E7"/>
</linearGradient>
<linearGradient id="paint11_linear_96_145" x1="82.7368" y1="186.176" x2="82.7368" y2="236.872" gradientUnits="userSpaceOnUse">
<stop stop-color="#465C8C"/>
<stop offset="1" stop-color="#DFA9E7"/>
</linearGradient>
<linearGradient id="paint12_linear_96_145" x1="172.886" y1="18.0337" x2="172.886" y2="68.0507" gradientUnits="userSpaceOnUse">
<stop stop-color="#465C8C"/>
<stop offset="1" stop-color="#DFA9E7"/>
</linearGradient>
<linearGradient id="paint13_linear_96_145" x1="150.35" y1="18.0532" x2="150.35" y2="69.0819" gradientUnits="userSpaceOnUse">
<stop stop-color="#465C8C"/>
<stop offset="1" stop-color="#DFA9E7"/>
</linearGradient>
</defs>
</svg>
